<svg width="468" height="982" viewBox="0 0 468 982" fill="none" xmlns="http://www.w3.org/2000/svg">
<g clip-path="url(#clip0_1_152)">
<rect width="468" height="982" fill="#FFCFF4"/>
<path d="M0 0H468V121H0V0Z" fill="url(#paint0_linear_1_152)"/>
<path d="M1 861H469V982H1V861Z" fill="url(#paint1_linear_1_152)"/>
<path d="M126.516 71.1309C125.598 72.6152 124.357 74.0898 122.795 75.5547C121.232 77 119.445 78.3086 117.434 79.4805C115.441 80.6328 113.264 81.5605 110.9 82.2637C108.537 82.9863 106.096 83.3477 103.576 83.3477C101.604 83.3477 99.6309 83.1719 97.6582 82.8203C95.7051 82.4688 93.8203 81.9316 92.0039 81.209C90.207 80.4863 88.5273 79.5781 86.9648 78.4844C85.4219 77.3711 84.0742 76.0625 82.9219 74.5586C81.7695 73.0547 80.8613 71.3457 80.1973 69.4316C79.5527 67.5176 79.2305 65.3887 79.2305 63.0449C79.2305 60.7598 79.5625 58.5918 80.2266 56.541C80.9102 54.4902 81.8574 52.5957 83.0684 50.8574C84.2793 49.0996 85.7148 47.5176 87.375 46.1113C89.0352 44.7051 90.8516 43.5137 92.8242 42.5371C94.7969 41.541 96.877 40.7793 99.0645 40.252C101.252 39.7246 103.488 39.4609 105.773 39.4609C108.293 39.4609 110.656 39.7637 112.863 40.3691C115.09 40.9551 117.033 41.7949 118.693 42.8887C120.354 43.9629 121.662 45.2617 122.619 46.7852C123.596 48.2891 124.084 49.9688 124.084 51.8242C124.084 53.543 123.684 55.1836 122.883 56.7461C122.082 58.2891 120.979 59.6465 119.572 60.8184C118.186 61.9902 116.555 62.918 114.68 63.6016C112.824 64.2852 110.842 64.627 108.732 64.627C107.033 64.627 105.529 64.4219 104.221 64.0117C102.912 63.582 101.818 62.9961 100.939 62.2539C100.061 61.5117 99.3965 60.6426 98.9473 59.6465C98.498 58.6504 98.2734 57.5762 98.2734 56.4238C98.2734 55.4668 98.4199 54.5977 98.7129 53.8164C99.0254 53.0156 99.3574 52.332 99.709 51.7656C100.08 51.1992 100.422 50.7598 100.734 50.4473C101.066 50.1152 101.252 49.9297 101.291 49.8906C101.389 49.793 101.496 49.7344 101.613 49.7148C101.75 49.6758 101.877 49.6562 101.994 49.6562C102.307 49.6562 102.57 49.7539 102.785 49.9492C103 50.1445 103.107 50.3984 103.107 50.7109C103.107 51.0625 102.98 51.3555 102.727 51.5898C102.688 51.6094 102.551 51.7461 102.316 52C102.082 52.2344 101.828 52.5664 101.555 52.9961C101.281 53.4062 101.027 53.9043 100.793 54.4902C100.578 55.0762 100.471 55.7207 100.471 56.4238C100.471 57.5371 100.715 58.4746 101.203 59.2363C101.711 59.998 102.365 60.623 103.166 61.1113C103.967 61.5801 104.855 61.9219 105.832 62.1367C106.809 62.332 107.785 62.4297 108.762 62.4297C110.578 62.4297 112.277 62.1367 113.859 61.5508C115.461 60.9648 116.857 60.1836 118.049 59.207C119.24 58.2305 120.178 57.1074 120.861 55.8379C121.545 54.5684 121.887 53.2402 121.887 51.8535C121.887 50.3301 121.457 48.9434 120.598 47.6934C119.738 46.4238 118.576 45.3496 117.111 44.4707C115.646 43.5723 113.928 42.8789 111.955 42.3906C110.002 41.9023 107.912 41.6582 105.686 41.6582C104.006 41.6582 102.238 41.8633 100.383 42.2734C98.5469 42.6641 96.7305 43.2598 94.9336 44.0605C93.1367 44.8613 91.418 45.8574 89.7773 47.0488C88.1562 48.2402 86.7305 49.6367 85.5 51.2383C84.2695 52.8203 83.2832 54.5977 82.541 56.5703C81.8184 58.543 81.457 60.7012 81.457 63.0449C81.457 65.1738 81.75 67.0977 82.3359 68.8164C82.9414 70.5352 83.7715 72.0684 84.8262 73.416C85.8809 74.7441 87.1113 75.8965 88.5176 76.873C89.9434 77.8496 91.4668 78.6602 93.0879 79.3047C94.7285 79.9297 96.4375 80.3984 98.2148 80.7109C99.9922 81.0039 101.76 81.1504 103.518 81.1504C105.861 81.1504 108.117 80.8281 110.285 80.1836C112.453 79.5195 114.455 78.6602 116.291 77.6055C118.146 76.5312 119.787 75.3301 121.213 74.002C122.639 72.6738 123.771 71.3359 124.611 69.9883C124.709 69.8125 124.846 69.6855 125.021 69.6074C125.197 69.5098 125.383 69.4609 125.578 69.4609C125.91 69.4609 126.174 69.5781 126.369 69.8125C126.564 70.0273 126.662 70.2715 126.662 70.5449C126.662 70.6426 126.652 70.7402 126.633 70.8379C126.613 70.9355 126.574 71.0332 126.516 71.1309ZM152.209 73.8262C152.131 73.9824 151.965 74.3145 151.711 74.8223C151.477 75.3105 151.164 75.877 150.773 76.5215C150.402 77.166 149.963 77.8398 149.455 78.543C148.947 79.2461 148.381 79.8906 147.756 80.4766C147.131 81.0625 146.457 81.5508 145.734 81.9414C145.012 82.3125 144.25 82.498 143.449 82.498C142.316 82.498 141.359 82.1367 140.578 81.4141C139.816 80.6914 139.26 79.7832 138.908 78.6895C138.244 79.8027 137.453 80.6914 136.535 81.3555C135.617 82 134.699 82.3223 133.781 82.3223C133.059 82.3223 132.404 82.1953 131.818 81.9414C131.232 81.668 130.734 81.2969 130.324 80.8281C129.914 80.3398 129.592 79.7734 129.357 79.1289C129.143 78.4844 129.035 77.7812 129.035 77.0195C129.035 75.4961 129.289 74.1582 129.797 73.0059C130.324 71.834 130.988 70.8574 131.789 70.0762C132.59 69.2949 133.469 68.709 134.426 68.3184C135.402 67.9277 136.34 67.7324 137.238 67.7324C137.844 67.7324 138.4 67.8203 138.908 67.9961C139.416 68.1523 139.846 68.3281 140.197 68.5234C140.568 68.7188 140.852 68.9043 141.047 69.0801C141.242 69.2363 141.35 69.3242 141.369 69.3438C141.584 69.5977 141.691 69.8613 141.691 70.1348C141.691 70.4277 141.584 70.6914 141.369 70.9258C141.154 71.1406 140.9 71.248 140.607 71.248C140.295 71.248 140.031 71.1406 139.816 70.9258C139.777 70.8867 139.689 70.8184 139.553 70.7207C139.416 70.6035 139.23 70.4863 138.996 70.3691C138.762 70.252 138.479 70.1543 138.146 70.0762C137.834 69.9785 137.473 69.9297 137.062 69.9297C136.457 69.9297 135.812 70.0664 135.129 70.3398C134.445 70.6133 133.82 71.043 133.254 71.6289C132.688 72.1953 132.209 72.918 131.818 73.7969C131.447 74.6562 131.262 75.6816 131.262 76.873C131.262 77.2441 131.301 77.625 131.379 78.0156C131.457 78.3867 131.594 78.7285 131.789 79.041C131.984 79.3535 132.248 79.6074 132.58 79.8027C132.912 79.998 133.322 80.0957 133.811 80.0957C134.162 80.0957 134.562 79.9785 135.012 79.7441C135.48 79.5098 135.92 79.1484 136.33 78.6602C136.76 78.1719 137.141 77.5566 137.473 76.8145C137.824 76.0723 138.068 75.1934 138.205 74.1777C138.244 73.9043 138.371 73.6797 138.586 73.5039C138.801 73.3086 139.055 73.2109 139.348 73.2109C139.621 73.2109 139.855 73.3184 140.051 73.5332C140.266 73.748 140.383 73.9922 140.402 74.2656C140.422 74.6367 140.461 75.1641 140.52 75.8477C140.578 76.5117 140.705 77.1758 140.9 77.8398C141.115 78.5039 141.428 79.0801 141.838 79.5684C142.248 80.0566 142.814 80.3008 143.537 80.3008C144.006 80.3008 144.465 80.1738 144.914 79.9199C145.383 79.666 145.832 79.334 146.262 78.9238C146.711 78.4941 147.131 78.0156 147.521 77.4883C147.932 76.9414 148.303 76.3945 148.635 75.8477C148.967 75.3008 149.26 74.7734 149.514 74.2656C149.768 73.7578 149.982 73.3184 150.158 72.9473C150.256 72.7324 150.393 72.5664 150.568 72.4492C150.764 72.332 150.969 72.2734 151.184 72.2734C151.516 72.2734 151.779 72.4004 151.975 72.6543C152.189 72.8887 152.297 73.1426 152.297 73.416C152.297 73.5527 152.268 73.6895 152.209 73.8262ZM166.857 73.8848C166.643 74.334 166.369 74.8711 166.037 75.4961C165.725 76.1016 165.363 76.7363 164.953 77.4004C164.543 78.0645 164.084 78.7285 163.576 79.3926C163.068 80.0371 162.512 80.623 161.906 81.1504C161.32 81.6582 160.686 82.0684 160.002 82.3809C159.338 82.7129 158.625 82.8789 157.863 82.8789C156.691 82.8789 155.686 82.5176 154.846 81.7949C154.006 81.0723 153.293 80.125 152.707 78.9531C152.121 77.7812 151.643 76.4531 151.271 74.9688C150.92 73.4648 150.646 71.9414 150.451 70.3984C150.256 68.8359 150.119 67.3223 150.041 65.8574C149.982 64.3926 149.953 63.0938 149.953 61.9609C149.953 60.3203 150.002 58.6211 150.1 56.8633C150.217 55.1055 150.393 53.3867 150.627 51.707C150.861 50.0273 151.154 48.4355 151.506 46.9316C151.877 45.4277 152.307 44.1094 152.795 42.9766C153.303 41.8438 153.879 40.9453 154.523 40.2812C155.168 39.6172 155.9 39.2852 156.721 39.2852C157.365 39.2852 157.941 39.4414 158.449 39.7539C158.977 40.0469 159.416 40.5352 159.768 41.2188C160.119 41.9023 160.393 42.791 160.588 43.8848C160.783 44.9785 160.881 46.3164 160.881 47.8984C160.881 49.8516 160.676 51.873 160.266 53.9629C159.855 56.0332 159.299 58.123 158.596 60.2324C157.893 62.3418 157.062 64.4512 156.105 66.5605C155.148 68.6504 154.123 70.6914 153.029 72.6836C153.518 75.1641 154.172 77.1172 154.992 78.543C155.812 79.9492 156.799 80.6523 157.951 80.6523C158.732 80.6523 159.484 80.3496 160.207 79.7441C160.93 79.1191 161.594 78.3867 162.199 77.5469C162.805 76.707 163.332 75.8574 163.781 74.998C164.25 74.1191 164.611 73.416 164.865 72.8887C164.963 72.6934 165.1 72.5469 165.275 72.4492C165.451 72.332 165.646 72.2734 165.861 72.2734C166.193 72.2734 166.457 72.3906 166.652 72.625C166.867 72.8594 166.975 73.123 166.975 73.416C166.975 73.5332 166.936 73.6895 166.857 73.8848ZM152.18 62.1074C152.18 63.3574 152.209 64.5586 152.268 65.7109C152.326 66.8633 152.404 67.9668 152.502 69.0215C153.322 67.4395 154.104 65.7598 154.846 63.9824C155.588 62.1855 156.242 60.3789 156.809 58.5625C157.375 56.7266 157.824 54.9102 158.156 53.1133C158.508 51.2969 158.684 49.5684 158.684 47.9277C158.684 45.623 158.498 43.9727 158.127 42.9766C157.756 41.9805 157.258 41.4824 156.633 41.4824C156.223 41.4824 155.822 41.7656 155.432 42.332C155.061 42.8984 154.709 43.6699 154.377 44.6465C154.045 45.623 153.742 46.7754 153.469 48.1035C153.195 49.4316 152.961 50.8574 152.766 52.3809C152.59 53.9043 152.443 55.4961 152.326 57.1562C152.229 58.8164 152.18 60.4668 152.18 62.1074ZM184.055 73.8848C183.938 74.0996 183.732 74.4902 183.439 75.0566C183.166 75.623 182.785 76.2676 182.297 76.9902C181.828 77.6934 181.262 78.4258 180.598 79.1875C179.934 79.9492 179.172 80.6523 178.312 81.2969C177.453 81.9219 176.486 82.4395 175.412 82.8496C174.357 83.2598 173.205 83.4648 171.955 83.4648C170.842 83.4648 169.855 83.2598 168.996 82.8496C168.137 82.459 167.404 81.9023 166.799 81.1797C166.193 80.4375 165.734 79.5684 165.422 78.5723C165.109 77.5762 164.953 76.4727 164.953 75.2617C164.953 74.0898 165.119 72.9961 165.451 71.9805C165.783 70.9453 166.232 70.0469 166.799 69.2852C167.385 68.5234 168.059 67.9277 168.82 67.498C169.582 67.0488 170.393 66.8242 171.252 66.8242C171.896 66.8242 172.482 66.9414 173.01 67.1758C173.537 67.3906 173.977 67.6836 174.328 68.0547C174.699 68.4258 174.982 68.8359 175.178 69.2852C175.393 69.7344 175.5 70.1836 175.5 70.6328C175.5 71.0625 175.441 71.4629 175.324 71.834C175.227 72.2051 175.09 72.5371 174.914 72.8301C174.758 73.1035 174.572 73.3281 174.357 73.5039C174.143 73.6602 173.928 73.7383 173.713 73.7383C173.381 73.7383 173.107 73.6309 172.893 73.416C172.697 73.2012 172.6 72.9375 172.6 72.625C172.6 72.4688 172.629 72.332 172.688 72.2148C172.766 72.0977 172.844 71.9805 172.922 71.8633C173.02 71.7266 173.098 71.5703 173.156 71.3945C173.234 71.1992 173.273 70.9551 173.273 70.6621C173.273 70.252 173.078 69.8809 172.688 69.5488C172.316 69.2168 171.838 69.0508 171.252 69.0508C170.705 69.0508 170.178 69.2168 169.67 69.5488C169.182 69.8809 168.752 70.3301 168.381 70.8965C168.01 71.4434 167.707 72.0977 167.473 72.8594C167.258 73.6016 167.15 74.3926 167.15 75.2324C167.15 76.0332 167.248 76.7949 167.443 77.5176C167.639 78.2402 167.932 78.8848 168.322 79.4512C168.713 79.998 169.201 80.4375 169.787 80.7695C170.393 81.1016 171.105 81.2676 171.926 81.2676C172.98 81.2676 173.957 81.082 174.855 80.7109C175.754 80.3203 176.574 79.832 177.316 79.2461C178.059 78.6602 178.713 78.0254 179.279 77.3418C179.846 76.6387 180.324 75.9844 180.715 75.3789C181.125 74.7539 181.438 74.2168 181.652 73.7676C181.887 73.2988 182.023 73.0059 182.062 72.8887C182.141 72.6934 182.268 72.5469 182.443 72.4492C182.639 72.332 182.844 72.2734 183.059 72.2734C183.391 72.2734 183.654 72.3906 183.85 72.625C184.064 72.8594 184.172 73.123 184.172 73.416C184.172 73.5332 184.133 73.6895 184.055 73.8848ZM191.789 78.7188C191.105 79.832 190.305 80.7109 189.387 81.3555C188.488 82 187.58 82.3223 186.662 82.3223C185.92 82.3223 185.256 82.1855 184.67 81.9121C184.084 81.6387 183.576 81.2578 183.146 80.7695C182.717 80.2617 182.385 79.6562 182.15 78.9531C181.936 78.25 181.828 77.459 181.828 76.5801C181.828 75.2129 181.955 74.002 182.209 72.9473C182.482 71.8926 182.775 71.0137 183.088 70.3105C183.4 69.5879 183.693 69.041 183.967 68.6699C184.24 68.2988 184.377 68.1133 184.377 68.1133C184.475 67.9961 184.592 67.9082 184.729 67.8496C184.885 67.791 185.041 67.7617 185.197 67.7617C185.51 67.7617 185.764 67.8789 185.959 68.1133C186.174 68.3281 186.281 68.582 186.281 68.875C186.281 68.9922 186.252 69.1094 186.193 69.2266C186.154 69.3438 186.105 69.4609 186.047 69.5781C185.949 69.7539 185.793 70.0273 185.578 70.3984C185.363 70.75 185.139 71.2188 184.904 71.8047C184.67 72.3906 184.465 73.084 184.289 73.8848C184.113 74.666 184.025 75.5645 184.025 76.5801C184.025 77.7324 184.25 78.6113 184.699 79.2168C185.168 79.8027 185.822 80.0957 186.662 80.0957C187.014 80.0957 187.414 79.9883 187.863 79.7734C188.332 79.5391 188.781 79.1875 189.211 78.7188C189.66 78.25 190.051 77.6543 190.383 76.9316C190.715 76.209 190.93 75.3594 191.027 74.3828L191.467 69.3438C191.506 69.0508 191.633 68.8066 191.848 68.6113C192.062 68.416 192.316 68.3184 192.609 68.3184C192.941 68.3184 193.205 68.4453 193.4 68.6992C193.596 68.9336 193.693 69.207 193.693 69.5195L193.312 74.3828C193.273 74.793 193.283 75.3301 193.342 75.9941C193.42 76.6582 193.566 77.3125 193.781 77.957C193.996 78.6016 194.318 79.1582 194.748 79.627C195.178 80.0762 195.744 80.3008 196.447 80.3008C196.955 80.3008 197.453 80.1738 197.941 79.9199C198.43 79.6465 198.898 79.2949 199.348 78.8652C199.797 78.4355 200.207 77.957 200.578 77.4297C200.969 76.8828 201.32 76.3359 201.633 75.7891C201.965 75.2422 202.248 74.7246 202.482 74.2363C202.717 73.7285 202.912 73.2988 203.068 72.9473C203.166 72.7324 203.303 72.5664 203.479 72.4492C203.654 72.332 203.85 72.2734 204.064 72.2734C204.416 72.2734 204.689 72.3906 204.885 72.625C205.08 72.8594 205.178 73.1133 205.178 73.3867C205.178 73.543 205.148 73.6895 205.09 73.8262C205.012 73.9824 204.855 74.3145 204.621 74.8223C204.406 75.3105 204.113 75.877 203.742 76.5215C203.391 77.1465 202.961 77.8105 202.453 78.5137C201.945 79.2168 201.379 79.8711 200.754 80.4766C200.129 81.0625 199.445 81.5508 198.703 81.9414C197.98 82.3125 197.199 82.498 196.359 82.498C195.207 82.498 194.25 82.1758 193.488 81.5312C192.727 80.8672 192.16 79.9297 191.789 78.7188ZM219.768 73.8848C219.553 74.334 219.279 74.8711 218.947 75.4961C218.635 76.1016 218.273 76.7363 217.863 77.4004C217.453 78.0645 216.994 78.7285 216.486 79.3926C215.979 80.0371 215.422 80.623 214.816 81.1504C214.23 81.6582 213.596 82.0684 212.912 82.3809C212.248 82.7129 211.535 82.8789 210.773 82.8789C209.602 82.8789 208.596 82.5176 207.756 81.7949C206.916 81.0723 206.203 80.125 205.617 78.9531C205.031 77.7812 204.553 76.4531 204.182 74.9688C203.83 73.4648 203.557 71.9414 203.361 70.3984C203.166 68.8359 203.029 67.3223 202.951 65.8574C202.893 64.3926 202.863 63.0938 202.863 61.9609C202.863 60.3203 202.912 58.6211 203.01 56.8633C203.127 55.1055 203.303 53.3867 203.537 51.707C203.771 50.0273 204.064 48.4355 204.416 46.9316C204.787 45.4277 205.217 44.1094 205.705 42.9766C206.213 41.8438 206.789 40.9453 207.434 40.2812C208.078 39.6172 208.811 39.2852 209.631 39.2852C210.275 39.2852 210.852 39.4414 211.359 39.7539C211.887 40.0469 212.326 40.5352 212.678 41.2188C213.029 41.9023 213.303 42.791 213.498 43.8848C213.693 44.9785 213.791 46.3164 213.791 47.8984C213.791 49.8516 213.586 51.873 213.176 53.9629C212.766 56.0332 212.209 58.123 211.506 60.2324C210.803 62.3418 209.973 64.4512 209.016 66.5605C208.059 68.6504 207.033 70.6914 205.939 72.6836C206.428 75.1641 207.082 77.1172 207.902 78.543C208.723 79.9492 209.709 80.6523 210.861 80.6523C211.643 80.6523 212.395 80.3496 213.117 79.7441C213.84 79.1191 214.504 78.3867 215.109 77.5469C215.715 76.707 216.242 75.8574 216.691 74.998C217.16 74.1191 217.521 73.416 217.775 72.8887C217.873 72.6934 218.01 72.5469 218.186 72.4492C218.361 72.332 218.557 72.2734 218.771 72.2734C219.104 72.2734 219.367 72.3906 219.562 72.625C219.777 72.8594 219.885 73.123 219.885 73.416C219.885 73.5332 219.846 73.6895 219.768 73.8848ZM205.09 62.1074C205.09 63.3574 205.119 64.5586 205.178 65.7109C205.236 66.8633 205.314 67.9668 205.412 69.0215C206.232 67.4395 207.014 65.7598 207.756 63.9824C208.498 62.1855 209.152 60.3789 209.719 58.5625C210.285 56.7266 210.734 54.9102 211.066 53.1133C211.418 51.2969 211.594 49.5684 211.594 47.9277C211.594 45.623 211.408 43.9727 211.037 42.9766C210.666 41.9805 210.168 41.4824 209.543 41.4824C209.133 41.4824 208.732 41.7656 208.342 42.332C207.971 42.8984 207.619 43.6699 207.287 44.6465C206.955 45.623 206.652 46.7754 206.379 48.1035C206.105 49.4316 205.871 50.8574 205.676 52.3809C205.5 53.9043 205.354 55.4961 205.236 57.1562C205.139 58.8164 205.09 60.4668 205.09 62.1074ZM240.451 73.8262C240.373 73.9824 240.207 74.3145 239.953 74.8223C239.719 75.3105 239.406 75.877 239.016 76.5215C238.645 77.166 238.205 77.8398 237.697 78.543C237.189 79.2461 236.623 79.8906 235.998 80.4766C235.373 81.0625 234.699 81.5508 233.977 81.9414C233.254 82.3125 232.492 82.498 231.691 82.498C230.559 82.498 229.602 82.1367 228.82 81.4141C228.059 80.6914 227.502 79.7832 227.15 78.6895C226.486 79.8027 225.695 80.6914 224.777 81.3555C223.859 82 222.941 82.3223 222.023 82.3223C221.301 82.3223 220.646 82.1953 220.061 81.9414C219.475 81.668 218.977 81.2969 218.566 80.8281C218.156 80.3398 217.834 79.7734 217.6 79.1289C217.385 78.4844 217.277 77.7812 217.277 77.0195C217.277 75.4961 217.531 74.1582 218.039 73.0059C218.566 71.834 219.23 70.8574 220.031 70.0762C220.832 69.2949 221.711 68.709 222.668 68.3184C223.645 67.9277 224.582 67.7324 225.48 67.7324C226.086 67.7324 226.643 67.8203 227.15 67.9961C227.658 68.1523 228.088 68.3281 228.439 68.5234C228.811 68.7188 229.094 68.9043 229.289 69.0801C229.484 69.2363 229.592 69.3242 229.611 69.3438C229.826 69.5977 229.934 69.8613 229.934 70.1348C229.934 70.4277 229.826 70.6914 229.611 70.9258C229.396 71.1406 229.143 71.248 228.85 71.248C228.537 71.248 228.273 71.1406 228.059 70.9258C228.02 70.8867 227.932 70.8184 227.795 70.7207C227.658 70.6035 227.473 70.4863 227.238 70.3691C227.004 70.252 226.721 70.1543 226.389 70.0762C226.076 69.9785 225.715 69.9297 225.305 69.9297C224.699 69.9297 224.055 70.0664 223.371 70.3398C222.688 70.6133 222.062 71.043 221.496 71.6289C220.93 72.1953 220.451 72.918 220.061 73.7969C219.689 74.6562 219.504 75.6816 219.504 76.873C219.504 77.2441 219.543 77.625 219.621 78.0156C219.699 78.3867 219.836 78.7285 220.031 79.041C220.227 79.3535 220.49 79.6074 220.822 79.8027C221.154 79.998 221.564 80.0957 222.053 80.0957C222.404 80.0957 222.805 79.9785 223.254 79.7441C223.723 79.5098 224.162 79.1484 224.572 78.6602C225.002 78.1719 225.383 77.5566 225.715 76.8145C226.066 76.0723 226.311 75.1934 226.447 74.1777C226.486 73.9043 226.613 73.6797 226.828 73.5039C227.043 73.3086 227.297 73.2109 227.59 73.2109C227.863 73.2109 228.098 73.3184 228.293 73.5332C228.508 73.748 228.625 73.9922 228.645 74.2656C228.664 74.6367 228.703 75.1641 228.762 75.8477C228.82 76.5117 228.947 77.1758 229.143 77.8398C229.357 78.5039 229.67 79.0801 230.08 79.5684C230.49 80.0566 231.057 80.3008 231.779 80.3008C232.248 80.3008 232.707 80.1738 233.156 79.9199C233.625 79.666 234.074 79.334 234.504 78.9238C234.953 78.4941 235.373 78.0156 235.764 77.4883C236.174 76.9414 236.545 76.3945 236.877 75.8477C237.209 75.3008 237.502 74.7734 237.756 74.2656C238.01 73.7578 238.225 73.3184 238.4 72.9473C238.498 72.7324 238.635 72.5664 238.811 72.4492C239.006 72.332 239.211 72.2734 239.426 72.2734C239.758 72.2734 240.021 72.4004 240.217 72.6543C240.432 72.8887 240.539 73.1426 240.539 73.416C240.539 73.5527 240.51 73.6895 240.451 73.8262ZM262.16 52.6738C262.16 52.9863 262.053 53.2402 261.838 53.4355C261.623 53.6113 261.359 53.6992 261.047 53.6992H246.193V54.0215C246.193 55.2129 246.105 56.4824 245.93 57.8301C245.754 59.1777 245.51 60.5254 245.197 61.873C244.904 63.2012 244.562 64.5 244.172 65.7695C243.801 67.0391 243.41 68.2109 243 69.2852C242.609 70.3594 242.219 71.2969 241.828 72.0977C241.438 72.8789 241.086 73.4648 240.773 73.8555C241.027 74.7539 241.33 75.5938 241.682 76.375C242.033 77.1367 242.424 77.8105 242.854 78.3965C243.303 78.9629 243.781 79.4121 244.289 79.7441C244.797 80.0762 245.344 80.2422 245.93 80.2422C246.613 80.2422 247.287 79.959 247.951 79.3926C248.635 78.8066 249.26 78.123 249.826 77.3418C250.412 76.541 250.92 75.7402 251.35 74.9395C251.799 74.1191 252.121 73.4648 252.316 72.9766C252.512 72.5078 252.854 72.2734 253.342 72.2734C253.674 72.2734 253.938 72.3906 254.133 72.625C254.348 72.8594 254.455 73.1133 254.455 73.3867C254.455 73.5234 254.426 73.6602 254.367 73.7969C254.309 73.9336 254.162 74.2461 253.928 74.7344C253.713 75.2227 253.42 75.7891 253.049 76.4336C252.697 77.0781 252.277 77.7617 251.789 78.4844C251.32 79.1875 250.783 79.832 250.178 80.418C249.592 81.0039 248.957 81.4922 248.273 81.8828C247.59 82.2734 246.867 82.4688 246.105 82.4688C244.758 82.4688 243.547 82.0293 242.473 81.1504C241.398 80.2715 240.48 79.041 239.719 77.459C238.977 75.877 238.41 74.002 238.02 71.834C237.629 69.666 237.434 67.293 237.434 64.7148C237.434 64.0703 237.443 63.3184 237.463 62.459C237.482 61.5801 237.521 60.6621 237.58 59.7051C237.639 58.7285 237.727 57.7324 237.844 56.7168C237.961 55.6816 238.117 54.6758 238.312 53.6992H227.795C227.482 53.6992 227.219 53.6113 227.004 53.4355C226.789 53.2402 226.682 52.9863 226.682 52.6738C226.682 52.3613 226.789 52.1172 227.004 51.9414C227.219 51.7461 227.482 51.6484 227.795 51.6484H238.811C239.006 50.9453 239.23 50.3008 239.484 49.7148C239.758 49.1289 240.061 48.6211 240.393 48.1914C240.744 47.7617 241.125 47.4297 241.535 47.1953C241.965 46.9414 242.434 46.8145 242.941 46.8145C243.43 46.8145 243.85 46.9414 244.201 47.1953C244.572 47.4297 244.885 47.7617 245.139 48.1914C245.393 48.6211 245.588 49.1289 245.725 49.7148C245.881 50.3008 245.998 50.9453 246.076 51.6484H261.047C261.359 51.6484 261.623 51.7461 261.838 51.9414C262.053 52.1172 262.16 52.3613 262.16 52.6738ZM240.1 70.9258C240.686 69.6367 241.213 68.25 241.682 66.7656C242.17 65.2617 242.58 63.748 242.912 62.2246C243.264 60.7012 243.527 59.207 243.703 57.7422C243.898 56.2773 243.996 54.9297 243.996 53.6992H240.539C240.266 54.9102 240.041 56.4141 239.865 58.2109C239.709 59.9883 239.631 62.1562 239.631 64.7148C239.631 66.1406 239.67 67.3418 239.748 68.3184C239.826 69.2754 239.943 70.1445 240.1 70.9258ZM242.824 49.0117C242.648 49.0117 242.395 49.207 242.062 49.5977C241.73 49.9688 241.398 50.6523 241.066 51.6484H243.879C243.781 50.8281 243.635 50.1836 243.439 49.7148C243.264 49.2461 243.059 49.0117 242.824 49.0117ZM240.568 73.0352V73.0645V73.0352ZM265.939 78.7773C265.451 78.7773 265.021 78.7383 264.65 78.6602C264.357 79.2461 264.006 79.793 263.596 80.3008C263.186 80.7891 262.707 81.2188 262.16 81.5898C261.633 81.9609 261.037 82.2539 260.373 82.4688C259.709 82.6836 258.986 82.791 258.205 82.791C257.287 82.791 256.447 82.625 255.686 82.293C254.924 81.9805 254.26 81.541 253.693 80.9746C253.127 80.3887 252.688 79.6953 252.375 78.8945C252.062 78.0742 251.906 77.1758 251.906 76.1992C251.906 74.9492 252.131 73.8652 252.58 72.9473C253.029 72.0098 253.547 71.2383 254.133 70.6328C254.719 70.0078 255.305 69.5488 255.891 69.2559C256.477 68.9434 256.916 68.7871 257.209 68.7871C257.541 68.7871 257.785 68.875 257.941 69.0508C258.117 69.2266 258.205 69.4609 258.205 69.7539C258.205 70.0859 258.098 70.3398 257.883 70.5156C257.688 70.6719 257.434 70.8281 257.121 70.9844C256.809 71.1406 256.477 71.3652 256.125 71.6582C255.773 71.9316 255.441 72.2832 255.129 72.7129C254.836 73.1426 254.592 73.6504 254.396 74.2363C254.201 74.8223 254.104 75.4766 254.104 76.1992C254.104 76.8438 254.201 77.4492 254.396 78.0156C254.592 78.5625 254.875 79.041 255.246 79.4512C255.617 79.8418 256.057 80.1543 256.564 80.3887C257.072 80.6035 257.639 80.7109 258.264 80.7109C259.377 80.7109 260.295 80.457 261.018 79.9492C261.76 79.4219 262.326 78.7578 262.717 77.957C261.564 77.3516 260.617 76.4922 259.875 75.3789C259.133 74.2656 258.762 73.0156 258.762 71.6289C258.762 70.5156 259.025 69.6074 259.553 68.9043C260.1 68.2012 260.812 67.8496 261.691 67.8496C262.219 67.8496 262.717 67.9766 263.186 68.2305C263.654 68.4844 264.064 68.8848 264.416 69.4316C264.787 69.9785 265.08 70.6816 265.295 71.541C265.51 72.4004 265.617 73.4258 265.617 74.6172C265.617 75.2422 265.539 75.8965 265.383 76.5801C265.5 76.5996 265.617 76.6094 265.734 76.6094C265.852 76.6094 265.979 76.6094 266.115 76.6094C266.779 76.6094 267.375 76.5312 267.902 76.375C268.43 76.2188 268.908 75.9844 269.338 75.6719C269.768 75.3594 270.148 74.959 270.48 74.4707C270.832 73.9824 271.164 73.416 271.477 72.7715C271.535 72.6543 271.662 72.5469 271.857 72.4492C272.053 72.332 272.248 72.2734 272.443 72.2734C272.697 72.2734 272.932 72.3809 273.146 72.5957C273.381 72.791 273.498 73.0547 273.498 73.3867C273.498 73.543 273.459 73.7188 273.381 73.9141C273.303 74.0898 273.225 74.2559 273.146 74.4121C272.814 74.998 272.424 75.5645 271.975 76.1113C271.545 76.6387 271.027 77.1074 270.422 77.5176C269.836 77.9082 269.172 78.2207 268.43 78.4551C267.688 78.6895 266.857 78.7969 265.939 78.7773ZM260.93 71.3945C260.93 71.7656 260.979 72.1562 261.076 72.5664C261.174 72.9766 261.32 73.3867 261.516 73.7969C261.73 74.1875 261.984 74.5684 262.277 74.9395C262.59 75.291 262.951 75.5938 263.361 75.8477C263.42 75.4375 263.449 75.0371 263.449 74.6465C263.449 74.1191 263.41 73.582 263.332 73.0352C263.254 72.4883 263.137 71.9902 262.98 71.541C262.844 71.0723 262.668 70.7012 262.453 70.4277C262.238 70.1348 261.984 69.9883 261.691 69.9883C261.574 69.9883 261.418 70.0762 261.223 70.252C261.027 70.4277 260.93 70.8086 260.93 71.3945ZM274.494 69.959C274.416 70.4863 274.318 70.9844 274.201 71.4531C274.084 71.9023 273.967 72.3027 273.85 72.6543C273.752 72.9863 273.664 73.2598 273.586 73.4746C273.508 73.6895 273.459 73.8066 273.439 73.8262C273.244 74.2754 272.902 74.5 272.414 74.5C272.141 74.5 271.887 74.4023 271.652 74.207C271.418 73.9922 271.301 73.7285 271.301 73.416C271.301 73.2988 271.32 73.2109 271.359 73.1523C271.398 73.0938 271.457 72.9766 271.535 72.8008C271.613 72.625 271.711 72.332 271.828 71.9219C271.945 71.5117 272.092 70.877 272.268 70.0176C271.936 70.0176 271.594 70.0078 271.242 69.9883C270.891 69.9688 270.568 69.9004 270.275 69.7832C269.963 69.666 269.709 69.4805 269.514 69.2266C269.318 68.9727 269.221 68.6211 269.221 68.1719C269.221 67.8398 269.318 67.3906 269.514 66.8242C269.689 66.2578 269.934 65.7012 270.246 65.1543C270.559 64.6074 270.91 64.1387 271.301 63.748C271.691 63.3379 272.082 63.1328 272.473 63.1328C272.922 63.1328 273.283 63.2988 273.557 63.6309C273.85 63.9629 274.074 64.373 274.23 64.8613C274.387 65.3301 274.494 65.8281 274.553 66.3555C274.631 66.8828 274.67 67.3418 274.67 67.7324C275.002 67.7324 275.324 67.7324 275.637 67.7324C275.969 67.7129 276.281 67.7031 276.574 67.7031C277.688 67.7031 278.537 67.9473 279.123 68.4355C279.709 68.9238 280.002 69.7246 280.002 70.8379C280.002 71.2871 279.973 71.7559 279.914 72.2441C279.855 72.7324 279.787 73.2402 279.709 73.7676C279.631 74.2754 279.562 74.7832 279.504 75.291C279.445 75.7988 279.416 76.2969 279.416 76.7852C279.416 77.4883 279.514 78.0742 279.709 78.543C279.904 78.9922 280.148 79.3535 280.441 79.627C280.734 79.9004 281.047 80.0957 281.379 80.2129C281.711 80.3105 282.014 80.3594 282.287 80.3594C283.127 80.3594 283.918 80.0859 284.66 79.5391C285.402 78.9922 286.086 78.3379 286.711 77.5762C287.336 76.7949 287.893 75.9746 288.381 75.1152C288.889 74.2559 289.309 73.5039 289.641 72.8594C289.738 72.6836 289.875 72.5469 290.051 72.4492C290.227 72.3516 290.412 72.3027 290.607 72.3027C290.959 72.3027 291.232 72.4199 291.428 72.6543C291.623 72.8691 291.721 73.1133 291.721 73.3867C291.721 73.582 291.682 73.7578 291.604 73.9141C291.154 74.7148 290.627 75.623 290.021 76.6387C289.436 77.6348 288.762 78.5723 288 79.4512C287.238 80.3301 286.379 81.0723 285.422 81.6777C284.484 82.2832 283.449 82.5859 282.316 82.5859C281.613 82.5859 280.949 82.4492 280.324 82.1758C279.699 81.9219 279.152 81.5508 278.684 81.0625C278.234 80.5547 277.873 79.9395 277.6 79.2168C277.326 78.4746 277.189 77.6445 277.189 76.7266C277.189 75.75 277.287 74.7832 277.482 73.8262C277.678 72.8496 277.775 71.9219 277.775 71.043C277.775 70.6719 277.688 70.3984 277.512 70.2227C277.355 70.0273 276.994 69.9297 276.428 69.9297C276.154 69.9297 275.852 69.9297 275.52 69.9297C275.207 69.9297 274.865 69.9395 274.494 69.959ZM272.531 67.791C272.531 67.6543 272.521 67.4785 272.502 67.2637C272.502 67.0293 272.482 66.8047 272.443 66.5898C272.424 66.375 272.385 66.1895 272.326 66.0332C272.287 65.877 272.238 65.7988 272.18 65.7988C272.121 65.7988 272.043 65.877 271.945 66.0332C271.867 66.1699 271.779 66.3457 271.682 66.5605C271.584 66.7559 271.496 66.9707 271.418 67.2051C271.34 67.4395 271.281 67.6348 271.242 67.791H272.531Z" fill="white"/>
<path d="M283.343 82L302.543 40H306.923L326.123 82H321.443L303.803 42.58H305.603L287.963 82H283.343ZM290.903 70.78L292.223 67.18H316.643L317.963 70.78H290.903ZM321.07 82V40H336.79C340.35 40 343.41 40.58 345.97 41.74C348.53 42.86 350.49 44.5 351.85 46.66C353.25 48.78 353.95 51.36 353.95 54.4C353.95 57.36 353.25 59.92 351.85 62.08C350.49 64.2 348.53 65.84 345.97 67C343.41 68.16 340.35 68.74 336.79 68.74H323.53L325.51 66.64V82H321.07ZM325.51 67L323.53 64.84H336.67C340.87 64.84 344.05 63.94 346.21 62.14C348.41 60.3 349.51 57.72 349.51 54.4C349.51 51.04 348.41 48.44 346.21 46.6C344.05 44.76 340.87 43.84 336.67 43.84H323.53L325.51 41.74V67ZM351.551 82V40H367.271C370.831 40 373.891 40.58 376.451 41.74C379.011 42.86 380.971 44.5 382.331 46.66C383.731 48.78 384.431 51.36 384.431 54.4C384.431 57.36 383.731 59.92 382.331 62.08C380.971 64.2 379.011 65.84 376.451 67C373.891 68.16 370.831 68.74 367.271 68.74H354.011L355.991 66.64V82H351.551ZM355.991 67L354.011 64.84H367.151C371.351 64.84 374.531 63.94 376.691 62.14C378.891 60.3 379.991 57.72 379.991 54.4C379.991 51.04 378.891 48.44 376.691 46.6C374.531 44.76 371.351 43.84 367.151 43.84H354.011L355.991 41.74V67Z" fill="white"/>
<path d="M19.1325 931L27.1325 913.5H28.9575L36.9575 931H35.0075L27.6575 914.575H28.4075L21.0575 931H19.1325ZM22.2825 926.325L22.8325 924.825H33.0075L33.5575 926.325H22.2825ZM39.4774 931V912.45H41.2524V931H39.4774ZM46.1913 931V912.45H47.9663V931H46.1913ZM59.4481 931V917.875H61.1481V921.45L60.9731 920.825C61.3398 919.825 61.9565 919.067 62.8231 918.55C63.6898 918.017 64.7648 917.75 66.0481 917.75V919.475C65.9815 919.475 65.9148 919.475 65.8481 919.475C65.7815 919.458 65.7148 919.45 65.6481 919.45C64.2648 919.45 63.1815 919.875 62.3981 920.725C61.6148 921.558 61.2231 922.75 61.2231 924.3V931H59.4481ZM69.287 931V917.875H71.062V931H69.287ZM70.187 914.975C69.8203 914.975 69.512 914.85 69.262 914.6C69.012 914.35 68.887 914.05 68.887 913.7C68.887 913.35 69.012 913.058 69.262 912.825C69.512 912.575 69.8203 912.45 70.187 912.45C70.5537 912.45 70.862 912.567 71.112 912.8C71.362 913.033 71.487 913.325 71.487 913.675C71.487 914.042 71.362 914.35 71.112 914.6C70.8787 914.85 70.5703 914.975 70.187 914.975ZM81.6009 935.975C80.4009 935.975 79.2509 935.8 78.1509 935.45C77.0509 935.1 76.1592 934.6 75.4759 933.95L76.3759 932.6C76.9925 933.15 77.7509 933.583 78.6509 933.9C79.5675 934.233 80.5342 934.4 81.5509 934.4C83.2175 934.4 84.4425 934.008 85.2259 933.225C86.0092 932.458 86.4009 931.258 86.4009 929.625V926.35L86.6509 924.1L86.4759 921.85V917.875H88.1759V929.4C88.1759 931.667 87.6175 933.325 86.5009 934.375C85.4009 935.442 83.7675 935.975 81.6009 935.975ZM81.2759 930.5C80.0259 930.5 78.9009 930.233 77.9009 929.7C76.9009 929.15 76.1092 928.392 75.5259 927.425C74.9592 926.458 74.6759 925.35 74.6759 924.1C74.6759 922.85 74.9592 921.75 75.5259 920.8C76.1092 919.833 76.9009 919.083 77.9009 918.55C78.9009 918.017 80.0259 917.75 81.2759 917.75C82.4425 917.75 83.4925 917.992 84.4259 918.475C85.3592 918.958 86.1009 919.675 86.6509 920.625C87.2009 921.575 87.4759 922.733 87.4759 924.1C87.4759 925.467 87.2009 926.625 86.6509 927.575C86.1009 928.525 85.3592 929.25 84.4259 929.75C83.4925 930.25 82.4425 930.5 81.2759 930.5ZM81.4509 928.925C82.4175 928.925 83.2759 928.725 84.0259 928.325C84.7759 927.908 85.3675 927.342 85.8009 926.625C86.2342 925.892 86.4509 925.05 86.4509 924.1C86.4509 923.15 86.2342 922.317 85.8009 921.6C85.3675 920.883 84.7759 920.325 84.0259 919.925C83.2759 919.508 82.4175 919.3 81.4509 919.3C80.5009 919.3 79.6425 919.508 78.8759 919.925C78.1259 920.325 77.5342 920.883 77.1009 921.6C76.6842 922.317 76.4759 923.15 76.4759 924.1C76.4759 925.05 76.6842 925.892 77.1009 926.625C77.5342 927.342 78.1259 927.908 78.8759 928.325C79.6425 928.725 80.5009 928.925 81.4509 928.925ZM99.8151 917.75C100.882 917.75 101.815 917.958 102.615 918.375C103.432 918.775 104.065 919.392 104.515 920.225C104.982 921.058 105.215 922.108 105.215 923.375V931H103.44V923.55C103.44 922.167 103.09 921.125 102.39 920.425C101.707 919.708 100.74 919.35 99.4901 919.35C98.5568 919.35 97.7401 919.542 97.0401 919.925C96.3568 920.292 95.8235 920.833 95.4401 921.55C95.0735 922.25 94.8901 923.1 94.8901 924.1V931H93.1151V912.45H94.8901V921.475L94.5401 920.8C94.9568 919.85 95.6235 919.108 96.5401 918.575C97.4568 918.025 98.5485 917.75 99.8151 917.75ZM114.16 931.125C112.926 931.125 111.976 930.792 111.31 930.125C110.643 929.458 110.31 928.517 110.31 927.3V914.975H112.085V927.2C112.085 927.967 112.276 928.558 112.66 928.975C113.06 929.392 113.626 929.6 114.36 929.6C115.143 929.6 115.793 929.375 116.31 928.925L116.935 930.2C116.585 930.517 116.16 930.75 115.66 930.9C115.176 931.05 114.676 931.125 114.16 931.125ZM107.96 919.35V917.875H116.085V919.35H107.96ZM123.691 931.125C122.608 931.125 121.583 930.975 120.616 930.675C119.649 930.358 118.891 929.967 118.341 929.5L119.141 928.1C119.674 928.5 120.358 928.85 121.191 929.15C122.024 929.433 122.899 929.575 123.816 929.575C125.066 929.575 125.966 929.383 126.516 929C127.066 928.6 127.341 928.075 127.341 927.425C127.341 926.942 127.183 926.567 126.866 926.3C126.566 926.017 126.166 925.808 125.666 925.675C125.166 925.525 124.608 925.4 123.991 925.3C123.374 925.2 122.758 925.083 122.141 924.95C121.541 924.817 120.991 924.625 120.491 924.375C119.991 924.108 119.583 923.75 119.266 923.3C118.966 922.85 118.816 922.25 118.816 921.5C118.816 920.783 119.016 920.142 119.416 919.575C119.816 919.008 120.399 918.567 121.166 918.25C121.949 917.917 122.899 917.75 124.016 917.75C124.866 917.75 125.716 917.867 126.566 918.1C127.416 918.317 128.116 918.608 128.666 918.975L127.891 920.4C127.308 920 126.683 919.717 126.016 919.55C125.349 919.367 124.683 919.275 124.016 919.275C122.833 919.275 121.958 919.483 121.391 919.9C120.841 920.3 120.566 920.817 120.566 921.45C120.566 921.95 120.716 922.342 121.016 922.625C121.333 922.908 121.741 923.133 122.241 923.3C122.758 923.45 123.316 923.575 123.916 923.675C124.533 923.775 125.141 923.9 125.741 924.05C126.358 924.183 126.916 924.375 127.416 924.625C127.933 924.858 128.341 925.2 128.641 925.65C128.958 926.083 129.116 926.658 129.116 927.375C129.116 928.142 128.899 928.808 128.466 929.375C128.049 929.925 127.433 930.358 126.616 930.675C125.816 930.975 124.841 931.125 123.691 931.125ZM138.916 931V917.875H140.616V921.45L140.441 920.825C140.808 919.825 141.424 919.067 142.291 918.55C143.158 918.017 144.233 917.75 145.516 917.75V919.475C145.449 919.475 145.383 919.475 145.316 919.475C145.249 919.458 145.183 919.45 145.116 919.45C143.733 919.45 142.649 919.875 141.866 920.725C141.083 921.558 140.691 922.75 140.691 924.3V931H138.916ZM154.208 931.125C152.841 931.125 151.641 930.842 150.608 930.275C149.574 929.692 148.766 928.9 148.183 927.9C147.599 926.883 147.308 925.725 147.308 924.425C147.308 923.125 147.583 921.975 148.133 920.975C148.699 919.975 149.466 919.192 150.433 918.625C151.416 918.042 152.516 917.75 153.733 917.75C154.966 917.75 156.058 918.033 157.008 918.6C157.974 919.15 158.733 919.933 159.283 920.95C159.833 921.95 160.108 923.108 160.108 924.425C160.108 924.508 160.099 924.6 160.083 924.7C160.083 924.783 160.083 924.875 160.083 924.975H148.658V923.65H159.133L158.433 924.175C158.433 923.225 158.224 922.383 157.808 921.65C157.408 920.9 156.858 920.317 156.158 919.9C155.458 919.483 154.649 919.275 153.733 919.275C152.833 919.275 152.024 919.483 151.308 919.9C150.591 920.317 150.033 920.9 149.633 921.65C149.233 922.4 149.033 923.258 149.033 924.225V924.5C149.033 925.5 149.249 926.383 149.683 927.15C150.133 927.9 150.749 928.492 151.533 928.925C152.333 929.342 153.241 929.55 154.258 929.55C155.058 929.55 155.799 929.408 156.483 929.125C157.183 928.842 157.783 928.408 158.283 927.825L159.283 928.975C158.699 929.675 157.966 930.208 157.083 930.575C156.216 930.942 155.258 931.125 154.208 931.125ZM167.246 931.125C166.162 931.125 165.137 930.975 164.171 930.675C163.204 930.358 162.446 929.967 161.896 929.5L162.696 928.1C163.229 928.5 163.912 928.85 164.746 929.15C165.579 929.433 166.454 929.575 167.371 929.575C168.621 929.575 169.521 929.383 170.071 929C170.621 928.6 170.896 928.075 170.896 927.425C170.896 926.942 170.737 926.567 170.421 926.3C170.121 926.017 169.721 925.808 169.221 925.675C168.721 925.525 168.162 925.4 167.546 925.3C166.929 925.2 166.312 925.083 165.696 924.95C165.096 924.817 164.546 924.625 164.046 924.375C163.546 924.108 163.137 923.75 162.821 923.3C162.521 922.85 162.371 922.25 162.371 921.5C162.371 920.783 162.571 920.142 162.971 919.575C163.371 919.008 163.954 918.567 164.721 918.25C165.504 917.917 166.454 917.75 167.571 917.75C168.421 917.75 169.271 917.867 170.121 918.1C170.971 918.317 171.671 918.608 172.221 918.975L171.446 920.4C170.862 920 170.237 919.717 169.571 919.55C168.904 919.367 168.237 919.275 167.571 919.275C166.387 919.275 165.512 919.483 164.946 919.9C164.396 920.3 164.121 920.817 164.121 921.45C164.121 921.95 164.271 922.342 164.571 922.625C164.887 922.908 165.296 923.133 165.796 923.3C166.312 923.45 166.871 923.575 167.471 923.675C168.087 923.775 168.696 923.9 169.296 924.05C169.912 924.183 170.471 924.375 170.971 924.625C171.487 924.858 171.896 925.2 172.196 925.65C172.512 926.083 172.671 926.658 172.671 927.375C172.671 928.142 172.454 928.808 172.021 929.375C171.604 929.925 170.987 930.358 170.171 930.675C169.371 930.975 168.396 931.125 167.246 931.125ZM181.503 931.125C180.136 931.125 178.936 930.842 177.903 930.275C176.869 929.692 176.061 928.9 175.478 927.9C174.894 926.883 174.603 925.725 174.603 924.425C174.603 923.125 174.878 921.975 175.428 920.975C175.994 919.975 176.761 919.192 177.728 918.625C178.711 918.042 179.811 917.75 181.028 917.75C182.261 917.75 183.353 918.033 184.303 918.6C185.269 919.15 186.028 919.933 186.578 920.95C187.128 921.95 187.403 923.108 187.403 924.425C187.403 924.508 187.394 924.6 187.378 924.7C187.378 924.783 187.378 924.875 187.378 924.975H175.953V923.65H186.428L185.728 924.175C185.728 923.225 185.519 922.383 185.103 921.65C184.703 920.9 184.153 920.317 183.453 919.9C182.753 919.483 181.944 919.275 181.028 919.275C180.128 919.275 179.319 919.483 178.603 919.9C177.886 920.317 177.328 920.9 176.928 921.65C176.528 922.4 176.328 923.258 176.328 924.225V924.5C176.328 925.5 176.544 926.383 176.978 927.15C177.428 927.9 178.044 928.492 178.828 928.925C179.628 929.342 180.536 929.55 181.553 929.55C182.353 929.55 183.094 929.408 183.778 929.125C184.478 928.842 185.078 928.408 185.578 927.825L186.578 928.975C185.994 929.675 185.261 930.208 184.378 930.575C183.511 930.942 182.553 931.125 181.503 931.125ZM191.016 931V917.875H192.716V921.45L192.541 920.825C192.907 919.825 193.524 919.067 194.391 918.55C195.257 918.017 196.332 917.75 197.616 917.75V919.475C197.549 919.475 197.482 919.475 197.416 919.475C197.349 919.458 197.282 919.45 197.216 919.45C195.832 919.45 194.749 919.875 193.966 920.725C193.182 921.558 192.791 922.75 192.791 924.3V931H191.016ZM204.791 931L198.966 917.875H200.816L206.166 930.05H205.291L210.716 917.875H212.466L206.616 931H204.791ZM220.175 931.125C218.808 931.125 217.608 930.842 216.575 930.275C215.541 929.692 214.733 928.9 214.15 927.9C213.566 926.883 213.275 925.725 213.275 924.425C213.275 923.125 213.55 921.975 214.1 920.975C214.666 919.975 215.433 919.192 216.4 918.625C217.383 918.042 218.483 917.75 219.7 917.75C220.933 917.75 222.025 918.033 222.975 918.6C223.941 919.15 224.7 919.933 225.25 920.95C225.8 921.95 226.075 923.108 226.075 924.425C226.075 924.508 226.066 924.6 226.05 924.7C226.05 924.783 226.05 924.875 226.05 924.975H214.625V923.65H225.1L224.4 924.175C224.4 923.225 224.191 922.383 223.775 921.65C223.375 920.9 222.825 920.317 222.125 919.9C221.425 919.483 220.616 919.275 219.7 919.275C218.8 919.275 217.991 919.483 217.275 919.9C216.558 920.317 216 920.9 215.6 921.65C215.2 922.4 215 923.258 215 924.225V924.5C215 925.5 215.216 926.383 215.65 927.15C216.1 927.9 216.716 928.492 217.5 928.925C218.3 929.342 219.208 929.55 220.225 929.55C221.025 929.55 221.766 929.408 222.45 929.125C223.15 928.842 223.75 928.408 224.25 927.825L225.25 928.975C224.666 929.675 223.933 930.208 223.05 930.575C222.183 930.942 221.225 931.125 220.175 931.125ZM234.912 931.125C233.662 931.125 232.537 930.842 231.537 930.275C230.554 929.708 229.779 928.925 229.212 927.925C228.646 926.908 228.362 925.742 228.362 924.425C228.362 923.092 228.646 921.925 229.212 920.925C229.779 919.925 230.554 919.15 231.537 918.6C232.537 918.033 233.662 917.75 234.912 917.75C236.062 917.75 237.087 918.008 237.987 918.525C238.904 919.042 239.629 919.8 240.162 920.8C240.712 921.783 240.987 922.992 240.987 924.425C240.987 925.842 240.721 927.05 240.187 928.05C239.654 929.05 238.929 929.817 238.012 930.35C237.112 930.867 236.079 931.125 234.912 931.125ZM235.037 929.55C235.971 929.55 236.804 929.342 237.537 928.925C238.287 928.492 238.871 927.892 239.287 927.125C239.721 926.342 239.937 925.442 239.937 924.425C239.937 923.392 239.721 922.492 239.287 921.725C238.871 920.958 238.287 920.367 237.537 919.95C236.804 919.517 235.971 919.3 235.037 919.3C234.121 919.3 233.296 919.517 232.562 919.95C231.829 920.367 231.246 920.958 230.812 921.725C230.379 922.492 230.162 923.392 230.162 924.425C230.162 925.442 230.379 926.342 230.812 927.125C231.246 927.892 231.829 928.492 232.562 928.925C233.296 929.342 234.121 929.55 235.037 929.55ZM239.987 931V927.05L240.162 924.4L239.912 921.75V912.45H241.687V931H239.987ZM253.549 935.85V912.45H255.199V935.85H253.549ZM275.04 931.15C273.724 931.15 272.507 930.933 271.39 930.5C270.274 930.05 269.307 929.425 268.49 928.625C267.674 927.825 267.032 926.883 266.565 925.8C266.115 924.717 265.89 923.533 265.89 922.25C265.89 920.967 266.115 919.783 266.565 918.7C267.032 917.617 267.674 916.675 268.49 915.875C269.324 915.075 270.299 914.458 271.415 914.025C272.532 913.575 273.749 913.35 275.065 913.35C276.332 913.35 277.524 913.567 278.64 914C279.757 914.417 280.699 915.05 281.465 915.9L280.29 917.075C279.574 916.342 278.782 915.817 277.915 915.5C277.049 915.167 276.115 915 275.115 915C274.065 915 273.09 915.183 272.19 915.55C271.29 915.9 270.507 916.408 269.84 917.075C269.174 917.725 268.649 918.492 268.265 919.375C267.899 920.242 267.715 921.2 267.715 922.25C267.715 923.3 267.899 924.267 268.265 925.15C268.649 926.017 269.174 926.783 269.84 927.45C270.507 928.1 271.29 928.608 272.19 928.975C273.09 929.325 274.065 929.5 275.115 929.5C276.115 929.5 277.049 929.333 277.915 929C278.782 928.667 279.574 928.133 280.29 927.4L281.465 928.575C280.699 929.425 279.757 930.067 278.64 930.5C277.524 930.933 276.324 931.15 275.04 931.15ZM293.064 931V928.1L292.989 927.625V922.775C292.989 921.658 292.672 920.8 292.039 920.2C291.422 919.6 290.497 919.3 289.264 919.3C288.414 919.3 287.605 919.442 286.839 919.725C286.072 920.008 285.422 920.383 284.889 920.85L284.089 919.525C284.755 918.958 285.555 918.525 286.489 918.225C287.422 917.908 288.405 917.75 289.439 917.75C291.139 917.75 292.447 918.175 293.364 919.025C294.297 919.858 294.764 921.133 294.764 922.85V931H293.064ZM288.539 931.125C287.555 931.125 286.697 930.967 285.964 930.65C285.247 930.317 284.697 929.867 284.314 929.3C283.93 928.717 283.739 928.05 283.739 927.3C283.739 926.617 283.897 926 284.214 925.45C284.547 924.883 285.08 924.433 285.814 924.1C286.564 923.75 287.564 923.575 288.814 923.575H293.339V924.9H288.864C287.597 924.9 286.714 925.125 286.214 925.575C285.73 926.025 285.489 926.583 285.489 927.25C285.489 928 285.78 928.6 286.364 929.05C286.947 929.5 287.764 929.725 288.814 929.725C289.814 929.725 290.672 929.5 291.389 929.05C292.122 928.583 292.655 927.917 292.989 927.05L293.389 928.275C293.055 929.142 292.472 929.833 291.639 930.35C290.822 930.867 289.789 931.125 288.539 931.125ZM299.585 931V912.45H301.36V931H299.585ZM311.749 931.125C310.449 931.125 309.282 930.842 308.249 930.275C307.232 929.692 306.432 928.9 305.849 927.9C305.265 926.883 304.974 925.725 304.974 924.425C304.974 923.108 305.265 921.95 305.849 920.95C306.432 919.95 307.232 919.167 308.249 918.6C309.282 918.033 310.449 917.75 311.749 917.75C312.865 917.75 313.874 917.967 314.774 918.4C315.674 918.833 316.382 919.483 316.899 920.35L315.574 921.25C315.124 920.583 314.565 920.092 313.899 919.775C313.232 919.458 312.507 919.3 311.724 919.3C310.79 919.3 309.949 919.517 309.199 919.95C308.449 920.367 307.857 920.958 307.424 921.725C306.99 922.492 306.774 923.392 306.774 924.425C306.774 925.458 306.99 926.358 307.424 927.125C307.857 927.892 308.449 928.492 309.199 928.925C309.949 929.342 310.79 929.55 311.724 929.55C312.507 929.55 313.232 929.392 313.899 929.075C314.565 928.758 315.124 928.275 315.574 927.625L316.899 928.525C316.382 929.375 315.674 930.025 314.774 930.475C313.874 930.908 312.865 931.125 311.749 931.125ZM325.811 931.125C324.694 931.125 323.719 930.917 322.886 930.5C322.052 930.083 321.402 929.458 320.936 928.625C320.486 927.792 320.261 926.75 320.261 925.5V917.875H322.036V925.3C322.036 926.7 322.377 927.758 323.061 928.475C323.761 929.175 324.736 929.525 325.986 929.525C326.902 929.525 327.694 929.342 328.361 928.975C329.044 928.592 329.561 928.042 329.911 927.325C330.277 926.608 330.461 925.75 330.461 924.75V917.875H332.236V931H330.536V927.4L330.811 928.05C330.394 929.017 329.744 929.775 328.861 930.325C327.994 930.858 326.977 931.125 325.811 931.125ZM337.183 931V912.45H338.958V931H337.183ZM352.121 931V928.1L352.046 927.625V922.775C352.046 921.658 351.73 920.8 351.096 920.2C350.48 919.6 349.555 919.3 348.321 919.3C347.471 919.3 346.663 919.442 345.896 919.725C345.13 920.008 344.48 920.383 343.946 920.85L343.146 919.525C343.813 918.958 344.613 918.525 345.546 918.225C346.48 917.908 347.463 917.75 348.496 917.75C350.196 917.75 351.505 918.175 352.421 919.025C353.355 919.858 353.821 921.133 353.821 922.85V931H352.121ZM347.596 931.125C346.613 931.125 345.755 930.967 345.021 930.65C344.305 930.317 343.755 929.867 343.371 929.3C342.988 928.717 342.796 928.05 342.796 927.3C342.796 926.617 342.955 926 343.271 925.45C343.605 924.883 344.138 924.433 344.871 924.1C345.621 923.75 346.621 923.575 347.871 923.575H352.396V924.9H347.921C346.655 924.9 345.771 925.125 345.271 925.575C344.788 926.025 344.546 926.583 344.546 927.25C344.546 928 344.838 928.6 345.421 929.05C346.005 929.5 346.821 929.725 347.871 929.725C348.871 929.725 349.73 929.5 350.446 929.05C351.18 928.583 351.713 927.917 352.046 927.05L352.446 928.275C352.113 929.142 351.53 929.833 350.696 930.35C349.88 930.867 348.846 931.125 347.596 931.125ZM362.792 931.125C361.559 931.125 360.609 930.792 359.942 930.125C359.276 929.458 358.942 928.517 358.942 927.3V914.975H360.717V927.2C360.717 927.967 360.909 928.558 361.292 928.975C361.692 929.392 362.259 929.6 362.992 929.6C363.776 929.6 364.426 929.375 364.942 928.925L365.567 930.2C365.217 930.517 364.792 930.75 364.292 930.9C363.809 931.05 363.309 931.125 362.792 931.125ZM356.592 919.35V917.875H364.717V919.35H356.592ZM373.685 931.125C372.418 931.125 371.277 930.842 370.26 930.275C369.26 929.692 368.468 928.9 367.885 927.9C367.302 926.883 367.01 925.725 367.01 924.425C367.01 923.108 367.302 921.95 367.885 920.95C368.468 919.95 369.26 919.167 370.26 918.6C371.26 918.033 372.402 917.75 373.685 917.75C374.985 917.75 376.135 918.033 377.135 918.6C378.152 919.167 378.943 919.95 379.51 920.95C380.093 921.95 380.385 923.108 380.385 924.425C380.385 925.725 380.093 926.883 379.51 927.9C378.943 928.9 378.152 929.692 377.135 930.275C376.118 930.842 374.968 931.125 373.685 931.125ZM373.685 929.55C374.635 929.55 375.477 929.342 376.21 928.925C376.943 928.492 377.518 927.892 377.935 927.125C378.368 926.342 378.585 925.442 378.585 924.425C378.585 923.392 378.368 922.492 377.935 921.725C377.518 920.958 376.943 920.367 376.21 919.95C375.477 919.517 374.643 919.3 373.71 919.3C372.777 919.3 371.943 919.517 371.21 919.95C370.477 920.367 369.893 920.958 369.46 921.725C369.027 922.492 368.81 923.392 368.81 924.425C368.81 925.442 369.027 926.342 369.46 927.125C369.893 927.892 370.477 928.492 371.21 928.925C371.943 929.342 372.768 929.55 373.685 929.55ZM384.009 931V917.875H385.709V921.45L385.534 920.825C385.9 919.825 386.517 919.067 387.384 918.55C388.25 918.017 389.325 917.75 390.609 917.75V919.475C390.542 919.475 390.475 919.475 390.409 919.475C390.342 919.458 390.275 919.45 390.209 919.45C388.825 919.45 387.742 919.875 386.959 920.725C386.175 921.558 385.784 922.75 385.784 924.3V931H384.009ZM398.161 931L406.161 913.5H407.986L415.986 931H414.036L406.686 914.575H407.436L400.086 931H398.161ZM401.311 926.325L401.861 924.825H412.036L412.586 926.325H401.311ZM425.281 931.125C424.147 931.125 423.122 930.867 422.206 930.35C421.289 929.817 420.556 929.058 420.006 928.075C419.472 927.075 419.206 925.858 419.206 924.425C419.206 922.992 419.472 921.783 420.006 920.8C420.539 919.8 421.264 919.042 422.181 918.525C423.097 918.008 424.131 917.75 425.281 917.75C426.531 917.75 427.647 918.033 428.631 918.6C429.631 919.15 430.414 919.933 430.981 920.95C431.547 921.95 431.831 923.108 431.831 924.425C431.831 925.758 431.547 926.925 430.981 927.925C430.414 928.925 429.631 929.708 428.631 930.275C427.647 930.842 426.531 931.125 425.281 931.125ZM418.506 935.85V917.875H420.206V921.825L420.031 924.45L420.281 927.1V935.85H418.506ZM425.156 929.55C426.089 929.55 426.922 929.342 427.656 928.925C428.389 928.492 428.972 927.892 429.406 927.125C429.839 926.342 430.056 925.442 430.056 924.425C430.056 923.408 429.839 922.517 429.406 921.75C428.972 920.983 428.389 920.383 427.656 919.95C426.922 919.517 426.089 919.3 425.156 919.3C424.222 919.3 423.381 919.517 422.631 919.95C421.897 920.383 421.314 920.983 420.881 921.75C420.464 922.517 420.256 923.408 420.256 924.425C420.256 925.442 420.464 926.342 420.881 927.125C421.314 927.892 421.897 928.492 422.631 928.925C423.381 929.342 424.222 929.55 425.156 929.55ZM442.224 931.125C441.091 931.125 440.066 930.867 439.149 930.35C438.232 929.817 437.499 929.058 436.949 928.075C436.416 927.075 436.149 925.858 436.149 924.425C436.149 922.992 436.416 921.783 436.949 920.8C437.482 919.8 438.207 919.042 439.124 918.525C440.041 918.008 441.074 917.75 442.224 917.75C443.474 917.75 444.591 918.033 445.574 918.6C446.574 919.15 447.357 919.933 447.924 920.95C448.491 921.95 448.774 923.108 448.774 924.425C448.774 925.758 448.491 926.925 447.924 927.925C447.357 928.925 446.574 929.708 445.574 930.275C444.591 930.842 443.474 931.125 442.224 931.125ZM435.449 935.85V917.875H437.149V921.825L436.974 924.45L437.224 927.1V935.85H435.449ZM442.099 929.55C443.032 929.55 443.866 929.342 444.599 928.925C445.332 928.492 445.916 927.892 446.349 927.125C446.782 926.342 446.999 925.442 446.999 924.425C446.999 923.408 446.782 922.517 446.349 921.75C445.916 920.983 445.332 920.383 444.599 919.95C443.866 919.517 443.032 919.3 442.099 919.3C441.166 919.3 440.324 919.517 439.574 919.95C438.841 920.383 438.257 920.983 437.824 921.75C437.407 922.517 437.199 923.408 437.199 924.425C437.199 925.442 437.407 926.342 437.824 927.125C438.257 927.892 438.841 928.492 439.574 928.925C440.324 929.342 441.166 929.55 442.099 929.55Z" fill="white"/>
<g filter="url(#filter0_d_1_152)">
<rect x="33" y="528" width="101" height="82" fill="white"/>
<path d="M33 211C33 205.477 37.4772 201 43 201H426C431.523 201 436 205.477 436 211V364H33V211Z" fill="url(#paint2_linear_1_152)" fill-opacity="0.8"/>
<rect x="33" y="364" width="101" height="82" fill="#EFD7F8"/>
<rect x="33" y="446" width="101" height="82" fill="white"/>
<path opacity="0.2" d="M172.173 577.122V575.239L180.483 562.091H181.85V565.009H180.926L174.648 574.943V575.091H185.838V577.122H172.173ZM181.074 581V576.55V575.673V562.091H183.253V581H181.074Z" fill="black"/>
<path opacity="0.2" d="M178.173 571.122V569.239L186.483 556.091H187.85V559.009H186.926L180.648 568.943V569.091H191.838V571.122H178.173ZM187.074 575V570.55V569.673V556.091H189.253V575H187.074Z" fill="black"/>
<rect x="33" y="610" width="101" height="82" fill="white"/>
<path d="M32 692H133V774H42C36.4771 774 32 769.523 32 764V692Z" fill="white"/>
<rect x="234" y="446" width="101" height="82" fill="white"/>
<rect x="234" y="528" width="101" height="82" fill="white"/>
<rect x="234" y="610" width="101" height="82" fill="white"/>
<rect x="233" y="692" width="101" height="82" fill="white"/>
<rect x="133" y="446" width="101" height="82" fill="white"/>
<rect x="134" y="528" width="101" height="82" fill="white"/>
<rect x="133" y="610" width="101" height="82" fill="white"/>
<rect x="132" y="692" width="101" height="82" fill="white"/>
<rect x="133" y="364" width="101" height="82" fill="#D9D9D9"/>
<rect x="134" y="364" width="101" height="82" fill="#EFD7F8"/>
<rect x="234" y="364" width="101" height="82" fill="#EFD7F8"/>
<rect x="335" y="364" width="101" height="82" fill="#EFD7F8"/>
<rect x="335" y="446" width="101" height="82" fill="#EFD7F8"/>
<rect x="335" y="528" width="101" height="82" fill="#EFD7F8"/>
<rect x="335" y="610" width="101" height="82" fill="#EFD7F8"/>
<path d="M335 690H436V763C436 768.523 431.523 773 426 773H335V690Z" fill="url(#paint3_linear_1_152)"/>
<path d="M67.2665 415H64.8659L71.8091 396.091H74.1728L81.1159 415H78.7154L73.0648 399.082H72.9171L67.2665 415ZM68.1529 407.614H77.829V409.645H68.1529V407.614ZM98.3885 402H96.0987C95.9633 401.341 95.7263 400.763 95.3878 400.264C95.0554 399.766 94.6491 399.347 94.169 399.009C93.6951 398.664 93.1688 398.405 92.5902 398.233C92.0116 398.061 91.4084 397.974 90.7805 397.974C89.6357 397.974 88.5985 398.264 87.669 398.842C86.7457 399.421 86.0102 400.273 85.4624 401.4C84.9207 402.526 84.6499 403.908 84.6499 405.545C84.6499 407.183 84.9207 408.565 85.4624 409.691C86.0102 410.817 86.7457 411.67 87.669 412.249C88.5985 412.827 89.6357 413.116 90.7805 413.116C91.4084 413.116 92.0116 413.03 92.5902 412.858C93.1688 412.686 93.6951 412.43 94.169 412.092C94.6491 411.747 95.0554 411.325 95.3878 410.827C95.7263 410.322 95.9633 409.743 96.0987 409.091H98.3885C98.2161 410.057 97.9022 410.922 97.4467 411.685C96.9912 412.449 96.425 413.098 95.7479 413.634C95.0708 414.163 94.3106 414.566 93.4673 414.843C92.6302 415.12 91.7346 415.259 90.7805 415.259C89.1679 415.259 87.7337 414.865 86.478 414.077C85.2223 413.289 84.2344 412.169 83.5142 410.716C82.794 409.263 82.4339 407.54 82.4339 405.545C82.4339 403.551 82.794 401.828 83.5142 400.375C84.2344 398.922 85.2223 397.802 86.478 397.014C87.7337 396.226 89.1679 395.832 90.7805 395.832C91.7346 395.832 92.6302 395.971 93.4673 396.248C94.3106 396.525 95.0708 396.931 95.7479 397.467C96.425 397.996 96.9912 398.642 97.4467 399.406C97.9022 400.163 98.2161 401.027 98.3885 402Z" fill="url(#paint4_linear_1_152)"/>
<path d="M82 743.259C80.6089 743.259 79.424 742.88 78.4453 742.123C77.4666 741.36 76.7188 740.255 76.2017 738.808C75.6847 737.356 75.4261 735.601 75.4261 733.545C75.4261 731.502 75.6847 729.757 76.2017 728.31C76.7249 726.858 77.4759 725.75 78.4545 724.987C79.4394 724.217 80.6212 723.832 82 723.832C83.3788 723.832 84.5575 724.217 85.5362 724.987C86.5211 725.75 87.272 726.858 87.7891 728.31C88.3123 729.757 88.5739 731.502 88.5739 733.545C88.5739 735.601 88.3153 737.356 87.7983 738.808C87.2812 740.255 86.5334 741.36 85.5547 742.123C84.576 742.88 83.3911 743.259 82 743.259ZM82 741.227C83.3788 741.227 84.4498 740.562 85.2131 739.233C85.9763 737.903 86.358 736.008 86.358 733.545C86.358 731.908 86.1825 730.514 85.8317 729.363C85.487 728.212 84.9884 727.335 84.3359 726.732C83.6896 726.128 82.911 725.827 82 725.827C80.6335 725.827 79.5656 726.501 78.7962 727.849C78.0268 729.191 77.642 731.089 77.642 733.545C77.642 735.183 77.8144 736.574 78.1591 737.719C78.5038 738.864 78.9993 739.735 79.6456 740.332C80.2981 740.929 81.0829 741.227 82 741.227Z" fill="#1F1E20"/>
<path d="M84.5621 642.091V661H82.2724V644.491H82.1616L77.5451 647.557V645.23L82.2724 642.091H84.5621Z" fill="#1F1E20"/>
<path d="M181.086 661V659.338L187.328 652.506C188.06 651.705 188.663 651.01 189.137 650.419C189.611 649.822 189.962 649.262 190.19 648.739C190.424 648.209 190.541 647.655 190.541 647.077C190.541 646.412 190.381 645.836 190.061 645.35C189.747 644.864 189.316 644.488 188.768 644.224C188.22 643.959 187.605 643.827 186.922 643.827C186.195 643.827 185.561 643.978 185.02 644.279C184.484 644.575 184.069 644.99 183.773 645.526C183.484 646.061 183.339 646.689 183.339 647.409H181.16C181.16 646.301 181.416 645.329 181.926 644.491C182.437 643.654 183.133 643.002 184.013 642.534C184.9 642.066 185.894 641.832 186.995 641.832C188.103 641.832 189.085 642.066 189.941 642.534C190.796 643.002 191.467 643.633 191.953 644.427C192.44 645.221 192.683 646.104 192.683 647.077C192.683 647.772 192.557 648.452 192.304 649.117C192.058 649.776 191.627 650.511 191.012 651.324C190.402 652.13 189.556 653.115 188.473 654.278L184.225 658.821V658.969H193.015V661H181.086Z" fill="#1F1E20"/>
<path d="M185.957 579.259C184.874 579.259 183.898 579.043 183.03 578.612C182.163 578.181 181.467 577.59 180.944 576.839C180.421 576.089 180.134 575.233 180.085 574.273H182.301C182.387 575.128 182.775 575.836 183.464 576.396C184.16 576.95 184.991 577.227 185.957 577.227C186.733 577.227 187.422 577.046 188.025 576.683C188.635 576.319 189.112 575.821 189.457 575.187C189.807 574.547 189.983 573.823 189.983 573.017C189.983 572.192 189.801 571.457 189.438 570.81C189.081 570.158 188.589 569.644 187.961 569.268C187.333 568.893 186.616 568.702 185.81 568.696C185.231 568.69 184.637 568.779 184.028 568.964C183.418 569.142 182.917 569.373 182.523 569.656L180.381 569.398L181.525 560.091H191.349V562.122H183.446L182.781 567.699H182.892C183.28 567.391 183.766 567.136 184.351 566.933C184.936 566.729 185.545 566.628 186.179 566.628C187.336 566.628 188.367 566.905 189.272 567.459C190.183 568.007 190.897 568.758 191.414 569.712C191.937 570.666 192.199 571.755 192.199 572.98C192.199 574.187 191.928 575.264 191.386 576.212C190.851 577.153 190.112 577.898 189.17 578.446C188.229 578.988 187.158 579.259 185.957 579.259Z" fill="#1F1E20"/>
<path d="M284.123 581.259C283.348 581.246 282.572 581.098 281.797 580.815C281.021 580.532 280.313 580.055 279.673 579.384C279.033 578.707 278.519 577.793 278.131 576.642C277.744 575.485 277.55 574.032 277.55 572.284C277.55 570.61 277.707 569.126 278.021 567.834C278.334 566.535 278.79 565.442 279.387 564.556C279.984 563.664 280.704 562.987 281.547 562.525C282.397 562.063 283.354 561.832 284.419 561.832C285.478 561.832 286.419 562.045 287.244 562.469C288.075 562.888 288.752 563.473 289.275 564.224C289.799 564.975 290.137 565.839 290.291 566.818H288.038C287.829 565.969 287.423 565.264 286.82 564.704C286.216 564.144 285.416 563.864 284.419 563.864C282.954 563.864 281.8 564.501 280.957 565.775C280.119 567.049 279.698 568.837 279.692 571.139H279.839C280.184 570.616 280.593 570.17 281.067 569.8C281.547 569.425 282.077 569.136 282.655 568.933C283.234 568.729 283.847 568.628 284.493 568.628C285.576 568.628 286.567 568.899 287.466 569.44C288.364 569.976 289.085 570.718 289.626 571.665C290.168 572.607 290.439 573.688 290.439 574.906C290.439 576.076 290.177 577.147 289.654 578.119C289.131 579.086 288.395 579.855 287.447 580.428C286.506 580.994 285.398 581.271 284.123 581.259ZM284.123 579.227C284.899 579.227 285.595 579.033 286.21 578.646C286.832 578.258 287.321 577.738 287.678 577.085C288.041 576.433 288.223 575.706 288.223 574.906C288.223 574.125 288.047 573.414 287.697 572.773C287.352 572.127 286.875 571.613 286.266 571.232C285.662 570.85 284.973 570.659 284.197 570.659C283.613 570.659 283.068 570.776 282.563 571.01C282.058 571.238 281.615 571.552 281.234 571.952C280.858 572.352 280.563 572.81 280.347 573.327C280.132 573.838 280.024 574.377 280.024 574.943C280.024 575.694 280.199 576.396 280.55 577.048C280.907 577.701 281.394 578.227 282.009 578.627C282.631 579.027 283.336 579.227 284.123 579.227Z" fill="#1F1E20"/>
<path d="M77.1215 497L85.5789 480.27V480.122H75.8289V478.091H87.9426V480.233L79.5221 497H77.1215Z" fill="#1F1E20"/>
<path d="M184.003 497.259C182.735 497.259 181.615 497.034 180.643 496.585C179.676 496.129 178.922 495.504 178.381 494.71C177.839 493.91 177.571 492.999 177.577 491.977C177.571 491.177 177.728 490.438 178.048 489.761C178.368 489.078 178.805 488.509 179.359 488.053C179.919 487.592 180.544 487.299 181.234 487.176V487.065C180.329 486.831 179.609 486.324 179.073 485.542C178.538 484.754 178.273 483.858 178.279 482.855C178.273 481.895 178.516 481.036 179.008 480.279C179.501 479.522 180.178 478.925 181.04 478.488C181.908 478.051 182.896 477.832 184.003 477.832C185.099 477.832 186.078 478.051 186.94 478.488C187.801 478.925 188.478 479.522 188.971 480.279C189.469 481.036 189.722 481.895 189.728 482.855C189.722 483.858 189.448 484.754 188.906 485.542C188.371 486.324 187.66 486.831 186.773 487.065V487.176C187.457 487.299 188.072 487.592 188.62 488.053C189.168 488.509 189.605 489.078 189.931 489.761C190.257 490.438 190.423 491.177 190.43 491.977C190.423 492.999 190.146 493.91 189.599 494.71C189.057 495.504 188.303 496.129 187.337 496.585C186.376 497.034 185.265 497.259 184.003 497.259ZM184.003 495.227C184.859 495.227 185.598 495.089 186.219 494.812C186.841 494.535 187.321 494.144 187.66 493.639C187.998 493.134 188.171 492.544 188.177 491.866C188.171 491.152 187.986 490.522 187.623 489.974C187.26 489.426 186.764 488.995 186.136 488.681C185.515 488.367 184.804 488.21 184.003 488.21C183.197 488.21 182.477 488.367 181.843 488.681C181.215 488.995 180.72 489.426 180.356 489.974C179.999 490.522 179.824 491.152 179.83 491.866C179.824 492.544 179.987 493.134 180.32 493.639C180.658 494.144 181.141 494.535 181.769 494.812C182.397 495.089 183.142 495.227 184.003 495.227ZM184.003 486.253C184.681 486.253 185.281 486.117 185.804 485.847C186.333 485.576 186.749 485.197 187.05 484.711C187.352 484.225 187.506 483.655 187.512 483.003C187.506 482.363 187.355 481.806 187.06 481.332C186.764 480.852 186.355 480.482 185.832 480.224C185.308 479.959 184.699 479.827 184.003 479.827C183.296 479.827 182.677 479.959 182.148 480.224C181.618 480.482 181.209 480.852 180.92 481.332C180.63 481.806 180.489 482.363 180.495 483.003C180.489 483.655 180.633 484.225 180.929 484.711C181.23 485.197 181.646 485.576 182.175 485.847C182.705 486.117 183.314 486.253 184.003 486.253Z" fill="#1F1E20"/>
<path d="M283.865 478.832C284.641 478.839 285.416 478.986 286.192 479.276C286.967 479.565 287.675 480.045 288.315 480.716C288.955 481.381 289.469 482.289 289.857 483.44C290.245 484.591 290.439 486.034 290.439 487.77C290.439 489.45 290.279 490.943 289.959 492.248C289.645 493.547 289.189 494.642 288.592 495.535C288.001 496.427 287.281 497.104 286.432 497.566C285.588 498.028 284.634 498.259 283.57 498.259C282.511 498.259 281.566 498.049 280.735 497.631C279.91 497.206 279.233 496.618 278.704 495.867C278.181 495.11 277.845 494.233 277.697 493.236H279.95C280.153 494.104 280.556 494.821 281.16 495.387C281.769 495.947 282.572 496.227 283.57 496.227C285.028 496.227 286.179 495.59 287.023 494.316C287.872 493.042 288.297 491.241 288.297 488.915H288.149C287.804 489.432 287.395 489.878 286.921 490.254C286.447 490.629 285.921 490.918 285.342 491.121C284.764 491.325 284.148 491.426 283.496 491.426C282.412 491.426 281.418 491.158 280.513 490.623C279.615 490.081 278.895 489.339 278.353 488.398C277.817 487.45 277.55 486.366 277.55 485.148C277.55 483.991 277.808 482.932 278.325 481.972C278.848 481.005 279.581 480.236 280.523 479.663C281.471 479.091 282.585 478.814 283.865 478.832ZM283.865 480.864C283.089 480.864 282.391 481.058 281.769 481.445C281.154 481.827 280.664 482.344 280.301 482.996C279.944 483.643 279.766 484.36 279.766 485.148C279.766 485.936 279.938 486.653 280.283 487.299C280.633 487.939 281.11 488.45 281.714 488.832C282.323 489.207 283.016 489.395 283.791 489.395C284.376 489.395 284.921 489.281 285.425 489.053C285.93 488.819 286.37 488.502 286.746 488.102C287.127 487.696 287.426 487.237 287.641 486.727C287.857 486.21 287.964 485.671 287.964 485.111C287.964 484.372 287.786 483.68 287.429 483.033C287.078 482.387 286.592 481.864 285.97 481.464C285.355 481.064 284.653 480.864 283.865 480.864Z" fill="#1F1E20"/>
<path d="M286.601 744.415L286.453 745.412C286.348 746.114 286.188 746.865 285.973 747.665C285.764 748.465 285.545 749.219 285.317 749.927C285.09 750.635 284.902 751.198 284.754 751.616H283.092C283.172 751.223 283.277 750.702 283.406 750.056C283.535 749.41 283.665 748.687 283.794 747.886C283.929 747.092 284.04 746.28 284.126 745.449L284.237 744.415H286.601Z" fill="black"/>
<path d="M284.069 664.259C282.85 664.259 281.764 664.049 280.81 663.631C279.862 663.212 279.108 662.63 278.548 661.886C277.994 661.135 277.692 660.264 277.643 659.273H279.97C280.019 659.882 280.228 660.408 280.598 660.852C280.967 661.289 281.45 661.627 282.047 661.867C282.644 662.107 283.306 662.227 284.032 662.227C284.845 662.227 285.565 662.086 286.193 661.803C286.821 661.519 287.313 661.125 287.67 660.621C288.027 660.116 288.206 659.531 288.206 658.866C288.206 658.171 288.033 657.558 287.689 657.029C287.344 656.494 286.839 656.075 286.174 655.773C285.51 655.472 284.697 655.321 283.737 655.321H282.223V653.29H283.737C284.488 653.29 285.146 653.154 285.713 652.884C286.285 652.613 286.731 652.231 287.051 651.739C287.378 651.246 287.541 650.668 287.541 650.003C287.541 649.363 287.399 648.806 287.116 648.332C286.833 647.858 286.433 647.488 285.916 647.224C285.405 646.959 284.802 646.827 284.106 646.827C283.454 646.827 282.838 646.947 282.26 647.187C281.687 647.421 281.219 647.762 280.856 648.212C280.493 648.655 280.296 649.19 280.265 649.818H278.049C278.086 648.827 278.385 647.959 278.945 647.214C279.505 646.464 280.238 645.879 281.142 645.46C282.053 645.042 283.054 644.832 284.143 644.832C285.313 644.832 286.316 645.069 287.153 645.543C287.99 646.011 288.633 646.63 289.083 647.399C289.532 648.169 289.757 649 289.757 649.892C289.757 650.957 289.477 651.865 288.917 652.616C288.363 653.367 287.609 653.887 286.654 654.176V654.324C287.849 654.521 288.781 655.029 289.452 655.847C290.123 656.66 290.458 657.666 290.458 658.866C290.458 659.894 290.178 660.818 289.618 661.636C289.064 662.449 288.307 663.089 287.347 663.557C286.387 664.025 285.294 664.259 284.069 664.259Z" fill="#1F1E20"/>
<path d="M172.851 413.707V401.52H174.92V413.707H172.851ZM167.792 408.648V406.58H179.979V408.648H167.792ZM191.135 395.205L185.041 417.844H183.047L189.141 395.205H191.135ZM201.843 405.878V407.909H193.57V405.878H201.843Z" fill="#1F1E20"/>
<path d="M285.034 411.455V410.457C285.034 409.768 285.176 409.137 285.459 408.565C285.748 407.986 286.167 407.524 286.714 407.18C287.268 406.829 287.939 406.653 288.727 406.653C289.527 406.653 290.198 406.829 290.74 407.18C291.282 407.524 291.691 407.986 291.968 408.565C292.245 409.137 292.384 409.768 292.384 410.457V411.455C292.384 412.144 292.242 412.778 291.959 413.357C291.682 413.929 291.269 414.391 290.722 414.741C290.18 415.086 289.515 415.259 288.727 415.259C287.927 415.259 287.253 415.086 286.705 414.741C286.157 414.391 285.742 413.929 285.459 413.357C285.176 412.778 285.034 412.144 285.034 411.455ZM286.918 410.457V411.455C286.918 412.027 287.053 412.541 287.324 412.996C287.595 413.446 288.063 413.67 288.727 413.67C289.374 413.67 289.829 413.446 290.094 412.996C290.365 412.541 290.5 412.027 290.5 411.455V410.457C290.5 409.885 290.371 409.374 290.112 408.925C289.854 408.469 289.392 408.241 288.727 408.241C288.081 408.241 287.616 408.469 287.333 408.925C287.056 409.374 286.918 409.885 286.918 410.457ZM275.616 400.634V399.636C275.616 398.947 275.758 398.316 276.041 397.744C276.33 397.165 276.749 396.703 277.297 396.359C277.851 396.008 278.522 395.832 279.31 395.832C280.11 395.832 280.781 396.008 281.322 396.359C281.864 396.703 282.273 397.165 282.55 397.744C282.827 398.316 282.966 398.947 282.966 399.636V400.634C282.966 401.323 282.824 401.957 282.541 402.536C282.264 403.108 281.852 403.57 281.304 403.92C280.762 404.265 280.098 404.438 279.31 404.438C278.509 404.438 277.835 404.265 277.288 403.92C276.74 403.57 276.324 403.108 276.041 402.536C275.758 401.957 275.616 401.323 275.616 400.634ZM277.5 399.636V400.634C277.5 401.206 277.635 401.72 277.906 402.175C278.177 402.625 278.645 402.849 279.31 402.849C279.956 402.849 280.411 402.625 280.676 402.175C280.947 401.72 281.082 401.206 281.082 400.634V399.636C281.082 399.064 280.953 398.553 280.695 398.104C280.436 397.648 279.974 397.42 279.31 397.42C278.663 397.42 278.199 397.648 277.915 398.104C277.638 398.553 277.5 399.064 277.5 399.636ZM276.318 415L289.318 396.091H291.423L278.423 415H276.318Z" fill="#1F1E20"/>
<path d="M390.045 395.205L383.951 417.844H381.957L388.051 395.205H390.045Z" fill="#1F1E20"/>
<path d="M382.599 480.818L385.997 486.616L389.394 480.818H391.906L387.326 487.909L391.906 495H389.394L385.997 489.497L382.599 495H380.087L384.593 487.909L380.087 480.818H382.599Z" fill="#1F1E20"/>
<path d="M390.14 565.878V567.909H381.867V565.878H390.14Z" fill="#1F1E20"/>
<path d="M384.805 657.509V643.446H387.192V657.509H384.805ZM378.967 651.67V649.284H393.03V651.67H378.967Z" fill="#1F1E20"/>
<path d="M379.436 733.474V731.173H392.561V733.474H379.436ZM379.436 739.781V737.48H392.561V739.781H379.436Z" fill="white"/>
<path d="M244.336 315.182V337H241.034V318.484H240.906L235.686 321.893V318.74L241.13 315.182H244.336ZM257.834 337.362C256.151 337.355 254.713 336.911 253.52 336.031C252.326 335.15 251.414 333.868 250.782 332.185C250.15 330.501 249.834 328.474 249.834 326.102C249.834 323.737 250.15 321.716 250.782 320.04C251.421 318.364 252.337 317.085 253.53 316.205C254.731 315.324 256.165 314.884 257.834 314.884C259.503 314.884 260.934 315.327 262.128 316.215C263.321 317.096 264.233 318.374 264.866 320.05C265.505 321.719 265.824 323.737 265.824 326.102C265.824 328.481 265.508 330.512 264.876 332.195C264.244 333.871 263.331 335.153 262.138 336.041C260.945 336.922 259.51 337.362 257.834 337.362ZM257.834 334.518C259.312 334.518 260.466 333.797 261.297 332.355C262.135 330.913 262.554 328.829 262.554 326.102C262.554 324.29 262.362 322.76 261.978 321.51C261.602 320.253 261.059 319.301 260.348 318.655C259.645 318.001 258.807 317.675 257.834 317.675C256.364 317.675 255.21 318.399 254.372 319.848C253.534 321.297 253.111 323.381 253.104 326.102C253.104 327.92 253.292 329.457 253.669 330.714C254.052 331.964 254.596 332.913 255.299 333.559C256.002 334.198 256.847 334.518 257.834 334.518ZM277.199 337.362C275.516 337.355 274.078 336.911 272.885 336.031C271.692 335.15 270.779 333.868 270.147 332.185C269.515 330.501 269.199 328.474 269.199 326.102C269.199 323.737 269.515 321.716 270.147 320.04C270.786 318.364 271.702 317.085 272.896 316.205C274.096 315.324 275.53 314.884 277.199 314.884C278.869 314.884 280.3 315.327 281.493 316.215C282.686 317.096 283.599 318.374 284.231 320.05C284.87 321.719 285.19 323.737 285.19 326.102C285.19 328.481 284.873 330.512 284.241 332.195C283.609 333.871 282.697 335.153 281.503 336.041C280.31 336.922 278.876 337.362 277.199 337.362ZM277.199 334.518C278.677 334.518 279.831 333.797 280.662 332.355C281.5 330.913 281.919 328.829 281.919 326.102C281.919 324.29 281.727 322.76 281.344 321.51C280.967 320.253 280.424 319.301 279.714 318.655C279.011 318.001 278.172 317.675 277.199 317.675C275.729 317.675 274.575 318.399 273.737 319.848C272.899 321.297 272.476 323.381 272.469 326.102C272.469 327.92 272.658 329.457 273.034 330.714C273.418 331.964 273.961 332.913 274.664 333.559C275.367 334.198 276.212 334.518 277.199 334.518ZM296.565 337.362C294.881 337.355 293.443 336.911 292.25 336.031C291.057 335.15 290.144 333.868 289.512 332.185C288.88 330.501 288.564 328.474 288.564 326.102C288.564 323.737 288.88 321.716 289.512 320.04C290.151 318.364 291.068 317.085 292.261 316.205C293.461 315.324 294.896 314.884 296.565 314.884C298.234 314.884 299.665 315.327 300.858 316.215C302.051 317.096 302.964 318.374 303.596 320.05C304.235 321.719 304.555 323.737 304.555 326.102C304.555 328.481 304.239 330.512 303.607 332.195C302.975 333.871 302.062 335.153 300.869 336.041C299.676 336.922 298.241 337.362 296.565 337.362ZM296.565 334.518C298.042 334.518 299.196 333.797 300.027 332.355C300.865 330.913 301.284 328.829 301.284 326.102C301.284 324.29 301.092 322.76 300.709 321.51C300.332 320.253 299.789 319.301 299.079 318.655C298.376 318.001 297.538 317.675 296.565 317.675C295.095 317.675 293.94 318.399 293.102 319.848C292.264 321.297 291.842 323.381 291.835 326.102C291.835 327.92 292.023 329.457 292.399 330.714C292.783 331.964 293.326 332.913 294.029 333.559C294.732 334.198 295.578 334.518 296.565 334.518ZM324.626 314.159L317.595 340.281H314.75L321.781 314.159H324.626ZM343.506 315.182V337H340.204V318.484H340.076L334.856 321.893V318.74L340.3 315.182H343.506ZM357.004 337.362C355.321 337.355 353.883 336.911 352.69 336.031C351.496 335.15 350.584 333.868 349.952 332.185C349.32 330.501 349.003 328.474 349.003 326.102C349.003 323.737 349.32 321.716 349.952 320.04C350.591 318.364 351.507 317.085 352.7 316.205C353.9 315.324 355.335 314.884 357.004 314.884C358.673 314.884 360.104 315.327 361.297 316.215C362.491 317.096 363.403 318.374 364.035 320.05C364.675 321.719 364.994 323.737 364.994 326.102C364.994 328.481 364.678 330.512 364.046 332.195C363.414 333.871 362.501 335.153 361.308 336.041C360.115 336.922 358.68 337.362 357.004 337.362ZM357.004 334.518C358.481 334.518 359.636 333.797 360.467 332.355C361.305 330.913 361.724 328.829 361.724 326.102C361.724 324.29 361.532 322.76 361.148 321.51C360.772 320.253 360.229 319.301 359.518 318.655C358.815 318.001 357.977 317.675 357.004 317.675C355.534 317.675 354.38 318.399 353.542 319.848C352.704 321.297 352.281 323.381 352.274 326.102C352.274 327.92 352.462 329.457 352.839 330.714C353.222 331.964 353.766 332.913 354.469 333.559C355.172 334.198 356.017 334.518 357.004 334.518ZM376.369 337.362C374.686 337.355 373.248 336.911 372.055 336.031C370.862 335.15 369.949 333.868 369.317 332.185C368.685 330.501 368.369 328.474 368.369 326.102C368.369 323.737 368.685 321.716 369.317 320.04C369.956 318.364 370.872 317.085 372.065 316.205C373.266 315.324 374.7 314.884 376.369 314.884C378.038 314.884 379.47 315.327 380.663 316.215C381.856 317.096 382.769 318.374 383.401 320.05C384.04 321.719 384.359 323.737 384.359 326.102C384.359 328.481 384.043 330.512 383.411 332.195C382.779 333.871 381.867 335.153 380.673 336.041C379.48 336.922 378.046 337.362 376.369 337.362ZM376.369 334.518C377.847 334.518 379.001 333.797 379.832 332.355C380.67 330.913 381.089 328.829 381.089 326.102C381.089 324.29 380.897 322.76 380.514 321.51C380.137 320.253 379.594 319.301 378.884 318.655C378.18 318.001 377.342 317.675 376.369 317.675C374.899 317.675 373.745 318.399 372.907 319.848C372.069 321.297 371.646 323.381 371.639 326.102C371.639 327.92 371.828 329.457 372.204 330.714C372.587 331.964 373.131 332.913 373.834 333.559C374.537 334.198 375.382 334.518 376.369 334.518Z" fill="white"/>
<path d="M369.095 236.182V258H364.482V240.56H364.354L359.357 243.692V239.602L364.759 236.182H369.095ZM382.835 258.479C381.002 258.472 379.426 258.021 378.105 257.126C376.791 256.232 375.779 254.935 375.069 253.238C374.365 251.54 374.017 249.499 374.025 247.112C374.025 244.733 374.376 242.705 375.079 241.029C375.789 239.353 376.801 238.078 378.115 237.205C379.436 236.324 381.01 235.884 382.835 235.884C384.66 235.884 386.23 236.324 387.544 237.205C388.865 238.085 389.88 239.364 390.591 241.04C391.301 242.709 391.652 244.733 391.645 247.112C391.645 249.506 391.29 251.551 390.58 253.249C389.877 254.946 388.868 256.242 387.554 257.137C386.24 258.032 384.667 258.479 382.835 258.479ZM382.835 254.655C384.085 254.655 385.083 254.026 385.828 252.769C386.574 251.512 386.944 249.626 386.936 247.112C386.936 245.457 386.766 244.08 386.425 242.979C386.091 241.878 385.615 241.05 384.998 240.496C384.387 239.942 383.666 239.665 382.835 239.665C381.592 239.665 380.598 240.287 379.852 241.53C379.106 242.773 378.73 244.634 378.723 247.112C378.723 248.788 378.89 250.188 379.223 251.31C379.564 252.425 380.044 253.263 380.662 253.824C381.279 254.378 382.004 254.655 382.835 254.655Z" fill="white"/>
<path d="M75.1734 575.122V573.239L83.483 560.091H84.8495V563.009H83.9262L77.6478 572.943V573.091H88.8382V575.122H75.1734ZM84.074 579V574.55V573.673V560.091H86.2529V579H84.074Z" fill="#1F1E20"/>
</g>
</g>
<defs>
<filter id="filter0_d_1_152" x="28" y="201" width="412" height="581" filterUnits="userSpaceOnUse" color-interpolation-filters="sRGB">
<feFlood flood-opacity="0" result="BackgroundImageFix"/>
<feColorMatrix in="SourceAlpha" type="matrix" values="0 0 0 0 0 0 0 0 0 0 0 0 0 0 0 0 0 0 127 0" result="hardAlpha"/>
<feOffset dy="4"/>
<feGaussianBlur stdDeviation="2"/>
<feComposite in2="hardAlpha" operator="out"/>
<feColorMatrix type="matrix" values="0 0 0 0 0 0 0 0 0 0 0 0 0 0 0 0 0 0 0.25 0"/>
<feBlend mode="normal" in2="BackgroundImageFix" result="effect1_dropShadow_1_152"/>
<feBlend mode="normal" in="SourceGraphic" in2="effect1_dropShadow_1_152" result="shape"/>
</filter>
<linearGradient id="paint0_linear_1_152" x1="16.6979" y1="-267.499" x2="488.992" y2="-278.574" gradientUnits="userSpaceOnUse">
<stop stop-color="#B310EF"/>
<stop offset="1" stop-color="#EF10BC" stop-opacity="0.67"/>
</linearGradient>
<linearGradient id="paint1_linear_1_152" x1="17.6979" y1="593.501" x2="489.992" y2="582.426" gradientUnits="userSpaceOnUse">
<stop stop-color="#B310EF"/>
<stop offset="1" stop-color="#EF10BC" stop-opacity="0.67"/>
</linearGradient>
<linearGradient id="paint2_linear_1_152" x1="40" y1="364" x2="436" y2="201" gradientUnits="userSpaceOnUse">
<stop stop-color="#B310EF"/>
<stop offset="1" stop-color="#EF10BC" stop-opacity="0.67"/>
</linearGradient>
<linearGradient id="paint3_linear_1_152" x1="335" y1="773" x2="439.5" y2="695" gradientUnits="userSpaceOnUse">
<stop stop-color="#B310EF"/>
<stop offset="1" stop-color="#EF10BC" stop-opacity="0.67"/>
</linearGradient>
<linearGradient id="paint4_linear_1_152" x1="54" y1="421" x2="110.5" y2="390" gradientUnits="userSpaceOnUse">
<stop stop-color="#B310EF"/>
<stop offset="1" stop-color="#EF10BC" stop-opacity="0.69"/>
</linearGradient>
<clipPath id="clip0_1_152">
<rect width="468" height="982" fill="white"/>
</clipPath>
</defs>
</svg>
